<svg width="240" height="1020" viewBox="0 0 240 1020" fill="none" xmlns="http://www.w3.org/2000/svg">
<path fill-rule="evenodd" clip-rule="evenodd" d="M238.65 289.51C237.18 278.357 236.97 273.297 237.81 259.15C239.489 228.997 234.556 177.984 224.583 122.737C219.859 96.0946 214.506 69.5555 212.931 63.9792C210.832 56.6474 202.749 38.0597 201.804 38.0597C201.279 38.0597 200.964 40.125 200.964 42.6034C200.964 45.2882 200.334 47.5601 199.389 48.3862C197.815 49.6254 197.71 49.3156 196.345 41.674C196.135 40.0217 194.876 36.4075 193.721 33.7226C191.621 28.9724 191.516 28.8691 188.472 29.9018C186.058 30.7279 185.218 31.6573 185.008 34.2389L184.693 37.5434L181.859 32.2769C179.339 27.5267 173.671 21.5373 171.676 21.5373C171.361 21.5373 169.892 22.2602 168.632 23.1895L166.218 24.8418L168.422 28.1463C170.942 32.2769 171.152 34.3422 168.842 33.516C162.859 31.2442 162.229 31.4507 160.024 36.0977C158.87 38.576 157.925 42.5001 157.925 44.7719V48.9025L153.831 44.2556C151.521 41.674 149.212 37.9564 148.582 35.9944C147.952 33.9291 146.378 31.1409 145.118 29.7985L142.704 27.2169L142.179 35.4781C141.549 45.0817 140.394 43.8425 139.03 31.8638C138.505 27.6299 137.455 22.0536 136.615 19.472L135.251 14.8251L133.466 17.4067C130.632 21.7438 129.162 34.3422 130.632 42.7066C131.262 46.6307 132.311 50.7613 132.836 51.6907C134.726 55.2017 133.361 68.213 131.367 65.9412C131.157 65.6314 129.582 59.8486 127.902 53.1364C124.753 40.7446 122.864 37.6466 121.604 42.6033C120.869 45.7013 119.61 46.0111 118.56 43.5327C117.93 41.8805 117.72 41.9838 116.04 44.1523C113.206 47.8699 110.687 46.4241 110.582 40.9511C110.582 38.4728 110.162 35.5813 109.742 34.4454C109.112 32.7932 108.587 33.6193 107.643 38.0597C106.173 44.8752 104.493 57.267 104.178 64.3922L103.863 69.5555L101.869 66.0445C100.189 63.0498 99.9794 61.0878 100.504 54.169C100.924 49.5221 101.344 45.0817 101.449 44.2556C101.659 43.4295 101.344 42.5001 100.714 42.2936C100.084 41.9838 98.2999 49.2123 96.3054 59.3323C94.5208 68.9359 92.3164 78.6428 91.3716 80.9146C89.2721 86.4909 89.2721 95.3717 91.7915 127.384L92.0274 130.41V130.41C93.9341 154.861 94.1421 157.528 93.4149 157.814C93.3259 157.849 93.2228 157.848 93.1071 157.847L93.0512 157.847C92.6313 157.847 91.6865 151.651 90.9517 144.216C90.2169 136.678 89.1672 128.416 88.5373 125.835C87.5926 121.498 85.0732 117.574 83.3936 117.574C82.9737 117.574 82.3439 122.737 82.029 129.036C81.714 135.335 81.1892 140.705 80.8742 141.015C80.5593 141.325 79.6146 141.118 78.8797 140.395C77.725 139.569 77.2002 134.199 76.7803 118.4C76.3604 106.834 74.8908 84.6322 73.5261 69.0392C71.4266 44.1523 70.7968 40.125 68.6973 36.7172C66.8078 33.516 66.1779 30.3148 65.2332 17.51C64.1834 1.71044 63.5536 -0.974451 61.4541 0.264728C58.5149 2.02023 57.0452 7.6998 56.1005 20.7112C54.7358 37.1303 52.1115 60.0551 51.2717 62.2237C49.6971 66.1477 48.9623 61.7074 48.2275 45.3915C47.1777 21.1242 46.128 17.6132 45.1832 34.4454C44.6584 41.8805 44.1335 48.2829 43.8186 48.7992C42.7688 50.4515 41.4042 46.8372 41.4042 42.5001C41.4042 40.0217 40.9843 38.0597 40.3544 38.0597C39.8296 38.0597 39.3047 40.0217 39.3047 42.5001C39.3047 44.9784 38.5699 47.8699 37.7301 49.0058C36.3654 50.7613 36.2605 50.5547 36.1555 45.2882C36.1555 42.1903 35.6306 38.8858 35.1058 38.0597C34.5809 37.2336 34.056 37.027 34.056 37.6466C33.9511 42.8099 27.6526 97.0239 26.9178 98.986C25.9731 101.361 25.8681 101.051 25.2382 96.4044C25.0283 95.0106 24.8184 93.462 24.6348 92.1068L24.6347 92.1061L24.6346 92.1059L24.6346 92.1054L24.6345 92.105L24.6345 92.1048C24.4509 90.75 24.2935 89.5887 24.1885 88.9693C23.9786 87.7301 24.5034 80.0885 25.2382 71.9306C26.6029 57.68 26.393 52.9298 24.7134 54.0658C23.5587 54.6853 22.299 65.2184 17.7851 109.829C16.9633 118.041 16.0524 127.2 15.1845 135.925L15.1836 135.935L15.1833 135.937L15.1828 135.942L15.1827 135.943L15.1822 135.949L15.182 135.951L15.1815 135.956C13.9443 148.395 12.7949 159.951 12.1165 166.624C8.86236 198.327 7.81262 220.529 7.0778 268.34C6.44796 309.956 6.86785 322.761 8.75738 321.625C9.17727 321.315 9.91209 312.125 10.227 301.179C10.5419 290.233 11.1718 280.422 11.4867 279.39C11.9066 278.357 13.0613 277.634 14.0061 277.841C15.5807 278.151 15.7906 285.792 16.4204 361.279C16.7065 386.215 17.055 420.202 17.3979 453.64L17.398 453.649L17.398 453.651C17.6841 481.554 17.9663 509.074 18.205 530.633C18.7299 578.032 19.0448 639.165 19.0448 666.427C18.9398 727.56 19.0448 735.098 21.0393 779.502C22.5089 812.96 23.0338 821.531 25.6581 852.304C26.6029 863.146 27.6526 880.185 29.5421 913.23C29.857 918.393 30.5919 923.04 31.1167 923.556C31.8515 924.279 31.9565 920.665 31.5366 912.507C31.1167 905.795 31.2217 900.322 31.6416 900.322C32.7963 900.322 36.8903 914.572 38.2549 923.453C39.6196 932.127 41.2992 935.742 41.4041 930.062C41.4041 926.138 42.9787 924.176 44.6583 925.828C45.1832 926.344 46.128 931.198 46.7578 936.568C48.6473 953.813 48.8573 955.052 49.907 955.052C50.4319 955.052 50.8518 952.574 50.9567 949.682C50.9567 946.688 51.3766 943.383 51.7965 942.351C52.4264 940.492 52.5313 940.492 54.3159 942.454C55.4706 943.693 56.8353 948.959 58.1999 958.253L58.2388 958.5C60.9293 975.603 60.9463 975.711 64.4983 976.841L67.4376 977.874L68.1724 992.95C69.2221 1014.22 70.7967 1009.47 70.7967 984.792C70.7967 973.537 71.2166 964.346 71.7415 964.346C72.7912 964.346 73.3161 968.58 74.9957 987.064C75.6255 994.19 76.3603 1001.11 76.6753 1002.45C78.0399 1008.85 78.6698 1001.21 78.7747 977.977C78.8797 957.324 80.6643 893.3 81.1891 892.37C81.1891 892.164 82.0289 892.061 82.8687 892.061C85.2831 892.061 86.3328 895.778 87.1726 907.86C87.4875 913.953 88.3273 918.6 88.7472 918.29C89.2721 917.98 89.692 913.436 89.692 908.067C89.692 902.697 90.1119 898.05 90.7417 897.74C91.2666 897.43 92.7362 897.637 93.8909 898.256C95.8854 899.289 95.9904 899.083 95.9904 891.854C95.9904 882.973 96.7252 879.669 98.7197 879.669C100.609 879.669 100.714 880.185 103.968 908.583C106.383 929.546 108.587 939.975 110.162 938.323C110.477 938.117 110.162 931.921 109.637 924.486C108.167 905.175 108.272 904.452 110.582 904.452C113.941 904.452 114.886 907.034 115.935 919.013C116.565 925.518 118.035 938.22 119.19 947.307C120.344 956.601 121.079 965.792 120.659 968.167C119.924 973.123 122.024 997.081 123.389 999.456C123.913 1000.39 124.228 994.19 124.333 984.999C124.333 972.401 124.858 966.824 126.643 958.873C127.902 953.09 129.267 949.166 129.792 949.682C131.786 951.644 133.571 961.868 134.306 975.395C134.621 983.243 135.67 991.505 136.405 993.776C137.245 996.048 138.19 1002.45 138.505 1008.03C139.135 1016.29 139.554 1018.25 141.129 1019.08C144.698 1020.94 145.328 1020.21 145.328 1014.84C145.328 1010.3 145.118 1009.68 143.753 1010.82C140.814 1013.29 139.869 1007.41 140.394 989.646C140.919 971.988 142.074 966.308 144.803 968.477C146.168 969.612 146.378 968.89 146.378 963.726C146.378 960.319 146.693 956.601 147.008 955.362C148.372 950.199 153.096 954.019 154.146 961.145C154.566 963.623 155.825 966.824 156.875 968.27C158.45 970.232 158.975 972.504 159.08 978.183C159.185 982.211 159.499 988.303 159.919 991.711C160.969 1000.7 161.914 995.842 162.544 977.254C163.069 962.694 163.278 961.351 166.218 955.568C168.527 951.025 169.577 946.894 170.417 939.666C171.047 933.676 172.096 929.339 173.041 928.307C174.301 926.964 174.721 924.279 174.721 918.496C174.721 910.958 174.931 910.132 177.87 906.827C179.759 904.865 181.019 902.18 181.019 900.528C181.019 887.414 183.433 842.803 184.168 842.08C185.638 840.635 186.163 847.347 188.262 893.609C188.787 903.316 189.627 912.3 190.152 913.746C190.782 915.192 191.516 922.111 191.936 929.236C192.356 936.361 192.986 943.28 193.301 944.726C193.931 946.997 194.036 947.101 194.771 945.242C195.19 944.106 195.61 939.975 195.61 935.948C195.715 928.926 197.29 927.48 198.025 933.883C198.235 935.845 198.97 936.981 199.914 936.981C201.279 936.981 201.699 931.198 202.644 895.675C203.378 872.957 204.428 844.662 205.058 832.683C206.633 802.736 209.152 733.859 209.887 701.64C210.202 686.873 210.727 674.481 211.041 673.965C211.356 673.552 212.511 673.655 213.666 674.172C215.87 675.411 216.395 681.4 214.611 685.944C213.876 687.803 214.086 689.765 215.24 692.966C216.395 696.167 216.71 699.265 216.185 703.809C215.66 708.972 215.87 710.934 217.655 714.755C218.915 717.336 219.859 721.054 219.859 723.016C219.859 724.978 220.174 728.695 220.489 731.277C221.119 735.821 221.329 736.027 223.953 735.408C225.423 735.098 227.207 734.375 227.837 733.962C228.572 733.342 229.202 718.472 229.622 687.906C230.881 603.642 232.351 546.639 233.611 533.731C234.556 524.024 234.661 502.339 233.926 446.472C232.666 349.403 232.771 326.169 234.241 323.587C235.395 321.625 235.5 321.728 236.76 324.413C239.069 329.37 239.699 327.408 239.489 317.185C239.384 311.608 239.594 306.135 239.909 304.999C240.224 303.864 239.699 296.945 238.65 289.51ZM145.748 239.323L143.124 240.459L143.439 218.567C143.753 197.604 144.593 190.892 146.483 195.642C146.903 196.675 147.008 200.599 146.798 204.316C146.483 208.034 146.693 215.469 147.218 220.839C148.897 237.464 148.792 237.877 145.748 239.323ZM142.599 265.552C140.394 275.466 138.505 274.743 138.505 263.9C138.505 255.329 139.554 250.785 141.444 250.785C143.648 250.785 145.433 253.264 144.908 255.432C144.593 256.465 143.543 261.112 142.599 265.552ZM62.3989 27.7332C61.0342 25.6679 61.0342 14.6186 62.3989 13.7924C63.0287 13.3794 63.4486 16.0643 63.4486 21.2275C63.4486 26.8038 63.1337 28.7658 62.3989 27.7332ZM229.412 783.633C228.467 782.393 228.257 782.393 228.257 783.529C228.257 784.309 227.603 792.995 226.824 803.342L226.823 803.351L226.683 805.215C225.843 816.368 224.688 831.857 224.163 839.809C223.114 853.853 222.694 856.021 221.224 854.472C220.174 853.44 220.594 820.808 221.959 792.41L222.041 790.74L222.141 788.728L222.291 785.716L222.292 785.715C223.312 765.259 223.441 762.667 222.222 761.181C222.045 760.966 221.839 760.773 221.604 760.553C221.537 760.49 221.467 760.425 221.395 760.356C221.339 760.304 221.282 760.249 221.224 760.191C219.544 758.539 218.915 756.061 218.285 748.626C217.865 743.463 217.13 739.022 216.71 738.712C214.506 737.37 214.506 776.301 216.71 794.475C217.865 803.872 218.075 833.51 217.025 847.554C216.395 856.641 216.29 857.054 214.086 856.538C211.986 856.021 211.881 856.228 212.511 861.391C212.931 864.282 212.931 867.69 212.511 868.826C212.091 869.962 212.196 891.338 212.721 916.328C213.246 941.318 213.561 968.064 213.561 975.705C213.561 990.885 215.031 1000.49 217.13 998.32C217.34 998.114 218.6 983.76 219.754 966.411C221.014 949.063 222.274 933.883 222.589 932.644C223.428 928.72 224.688 929.959 226.053 935.948C226.788 939.046 227.837 941.421 228.362 941.008C228.992 940.698 229.307 920.768 229.097 888.137C228.887 859.326 229.202 824.422 229.622 810.481C230.147 793.546 230.042 784.665 229.412 783.633ZM166.113 971.058C165.693 967.547 166.218 966.618 167.687 968.167C168.737 969.199 168.527 974.672 167.478 974.672C166.953 974.672 166.323 973.02 166.113 971.058ZM160.339 1005.45C160.024 1006.17 160.129 1007.1 160.444 1007.41C160.759 1007.82 161.074 1007.2 160.969 1006.07C160.969 1004.93 160.654 1004.62 160.339 1005.45ZM153.096 980.559C152.781 980.249 152.676 979.319 152.991 978.597C153.306 977.771 153.621 978.08 153.621 979.216C153.726 980.352 153.411 980.972 153.096 980.559ZM144.278 1000.49C143.649 1000.49 143.439 1001.62 143.858 1003.38C144.908 1007.41 145.328 1007.51 145.328 1003.79C145.328 1001.93 144.803 1000.49 144.278 1000.49ZM77.5151 1012.57C77.2002 1012.26 77.0952 1011.33 77.4101 1010.61C77.725 1009.78 78.04 1010.09 78.04 1011.23C78.1449 1012.36 77.83 1012.98 77.5151 1012.57ZM19.2547 934.399C18.5199 931.301 15.4757 896.811 13.4812 867.793C13.1663 862.733 12.2215 854.059 11.4867 848.689C10.6469 843.32 9.28224 831.444 8.44245 822.46C7.49769 813.373 6.34298 805.525 5.71314 804.905C4.24351 803.459 4.34848 813.992 6.13303 833.303C6.97282 842.184 7.39271 851.994 7.07779 855.092C6.76287 858.603 7.39271 866.038 8.6524 874.609C9.91208 882.25 11.3817 893.816 12.1165 900.322C13.6911 916.638 16.8403 933.676 18.7299 937.187C20.5144 940.389 20.6194 939.769 19.2547 934.399ZM11.4867 372.122C11.4867 335.669 12.0116 325.343 13.3762 334.224C13.5862 335.773 13.9011 350.953 13.9011 367.991C14.111 397.732 13.4812 412.912 12.1165 412.912C11.8016 412.912 11.4867 394.53 11.4867 372.122ZM13.2713 420.76C12.4315 418.798 12.3266 418.901 11.6967 421.276C10.752 424.684 10.9619 438.624 12.0116 441.826C12.7465 443.994 12.8514 443.581 12.9564 439.657C13.0614 437.075 13.2713 432.119 13.5862 428.814C13.9012 425.51 13.6912 421.792 13.2713 420.76ZM11.0669 499.861C11.1718 495.936 11.2768 495.523 12.0116 497.589C13.2713 501.409 13.2713 506.056 12.0116 505.334C11.4867 505.024 10.9619 502.545 11.0669 499.861ZM12.0117 525.987C11.4868 525.677 10.9619 526.09 10.9619 526.916C10.9619 527.742 11.4868 528.775 12.0117 529.085C12.6415 529.394 13.0614 528.981 13.0614 528.155C13.0614 527.329 12.6415 526.296 12.0117 525.987ZM6.343 567.912C6.55295 583.505 7.18279 603.435 7.70765 612.213C8.65242 630.078 7.9176 738.299 6.76289 742.327C6.13304 744.495 5.81812 743.875 4.66341 738.712C4.03357 735.305 2.77389 729.935 1.9341 726.837C0.0445776 719.815 0.149551 719.092 2.03908 717.13C3.40373 715.787 3.50871 714.858 2.45897 710.727C1.40923 706.907 1.51421 692.759 2.56395 647.529C3.29876 615.311 3.61368 579.788 3.19379 567.912C2.45898 546.536 2.98384 536.829 4.87337 538.688C5.50321 539.308 6.13305 552.216 6.343 567.912ZM4.13859 763.702C0.884405 744.701 -0.480252 744.908 0.149589 764.218C0.250302 766.993 0.340279 769.64 0.41952 771.971C0.588057 776.93 0.708027 780.46 0.779429 780.741C0.884403 781.051 2.24906 780.431 3.71869 779.192L6.448 776.92L4.13859 763.702ZM0.779409 814.405C0.569462 813.373 0.569462 811.514 0.779409 810.275C0.989356 808.932 1.1993 809.758 1.1993 812.03C1.30428 814.302 1.09433 815.335 0.779409 814.405Z" fill="black"/>
</svg>
