<svg width="614" height="614" viewBox="0 0 614 614" fill="none" xmlns="http://www.w3.org/2000/svg">
<g clip-path="url(#clip0_68_21)">
<rect x="592.08" y="-285" width="878.649" height="1042.16" transform="rotate(30 592.08 -285)" fill="black"/>
<path fill-rule="evenodd" clip-rule="evenodd" d="M503.922 192.262C508.225 181.869 510.573 177.382 518.374 165.55C534.906 140.276 556.139 93.6307 575.126 40.7994C584.356 15.3646 592.99 -10.2958 594.414 -15.9123C596.262 -23.3116 598.556 -43.4504 597.737 -43.9228C597.283 -44.1853 595.977 -42.5541 594.738 -40.4078C593.396 -38.0826 591.714 -36.4301 590.483 -36.187C588.5 -35.9012 588.564 -36.2219 591.203 -43.5221C591.847 -45.0579 592.563 -48.8178 592.906 -51.7204C593.463 -56.8839 593.424 -57.0258 590.271 -57.6536C587.767 -58.1454 586.575 -57.7604 585.102 -55.6296L583.177 -52.9253L583.356 -58.9034C583.549 -64.2769 581.635 -72.2981 579.907 -73.2953C579.635 -73.4528 578.001 -73.5616 576.445 -73.3866L573.528 -73.1629L573.785 -69.1989C573.901 -64.362 573.051 -62.4685 571.464 -64.3386C567.418 -69.2978 566.769 -69.4339 562.536 -66.5117C560.297 -64.9428 557.517 -62.0168 556.381 -60.0494L554.316 -56.4722L553.094 -62.5435C552.384 -65.9339 552.243 -70.3081 552.679 -72.3222C553.166 -74.4258 553.196 -77.6277 552.777 -79.4201L551.977 -82.863L547.391 -75.9711C542.044 -67.969 541.664 -69.6195 546.471 -80.6757C548.134 -84.6048 550.013 -89.9589 550.576 -92.6145L551.718 -97.3212L548.882 -95.9777C544.258 -93.6388 536.687 -83.4632 533.777 -75.4845C532.361 -71.7713 531.204 -67.6692 531.194 -66.6019C531.075 -62.6165 523.388 -52.0306 522.796 -54.9954C522.769 -55.3686 524.297 -61.164 526.199 -67.8167C529.667 -80.123 529.58 -83.7506 526.01 -80.0878C523.825 -77.7723 522.579 -78.1339 522.909 -80.8051C523.19 -82.5509 522.957 -82.5664 520.418 -81.5282C516.104 -79.7258 514.645 -82.2375 517.291 -87.0298C518.53 -89.1761 519.612 -91.8901 519.817 -93.0838C520.097 -94.8296 519.23 -94.3766 516.191 -91.0035C511.511 -85.8359 503.86 -75.9441 500.025 -69.9309L497.171 -65.6169L497.199 -69.6547C497.242 -73.088 498.041 -74.8921 501.955 -80.6215C504.642 -84.4359 507.226 -88.0715 507.73 -88.7344C508.325 -89.3449 508.517 -90.3072 508.074 -90.801C507.684 -91.3842 502.524 -86.0164 495.737 -78.2495C489.389 -70.8248 482.627 -63.5206 480.673 -62.0255C476.066 -58.246 471.626 -50.555 457.802 -21.572L456.493 -18.8338L456.493 -18.8336C445.919 3.2949 444.765 5.70931 443.993 5.59294C443.898 5.57869 443.809 5.52649 443.709 5.46788L443.661 5.43969C443.298 5.22974 445.577 -0.608439 448.658 -7.41481C451.791 -14.3106 455.013 -21.9899 455.758 -24.5406C457.109 -28.769 456.889 -33.427 455.434 -34.2668C455.071 -34.4768 451.943 -30.3202 448.521 -25.0224C445.099 -19.7246 441.959 -15.3367 441.532 -15.2259C441.104 -15.115 440.389 -15.7663 440.114 -16.7597C439.527 -18.0525 441.758 -22.9653 449.294 -36.858C454.713 -47.0842 464.541 -67.0464 471.156 -81.2327C481.781 -103.835 483.249 -107.638 483.135 -111.639C483.099 -115.356 484.154 -118.443 489.739 -130.005C496.729 -144.212 497.526 -146.852 495.088 -146.829C491.665 -146.778 487.553 -142.595 480.229 -131.799C470.837 -118.262 457.102 -99.7204 455.291 -98.2623C451.965 -95.6512 453.549 -99.8641 461.07 -114.361C472.295 -135.902 473.141 -139.468 463.907 -125.363C459.735 -119.187 456.079 -113.904 455.548 -113.615C453.813 -112.709 454.438 -116.521 456.607 -120.277C457.846 -122.423 458.464 -124.333 457.918 -124.648C457.464 -124.91 456.028 -123.473 454.789 -121.327C453.55 -119.181 451.468 -117.044 450.172 -116.48C448.113 -115.642 448.125 -115.873 450.667 -120.487C452.216 -123.17 453.414 -126.294 453.373 -127.272C453.331 -128.25 452.98 -128.691 452.67 -128.154C449.998 -123.735 417.436 -79.9339 415.819 -78.6021C413.813 -77.0176 413.877 -77.3384 415.655 -81.6777C416.17 -82.9897 416.762 -84.4357 417.281 -85.7012L417.281 -85.7018L417.281 -85.702L417.281 -85.7025L417.282 -85.7029L417.282 -85.703C417.8 -86.9682 418.244 -88.0526 418.463 -88.6415C418.901 -89.8196 423.176 -96.175 427.892 -102.873C436.199 -114.532 438.392 -118.75 436.37 -118.606C435.06 -118.647 428.702 -110.155 402.488 -73.7783C397.67 -67.0774 392.302 -59.6011 387.187 -52.4783L387.182 -52.4707L387.181 -52.4687L387.177 -52.4644L387.177 -52.4638L387.174 -52.459L387.173 -52.4576L387.17 -52.4536C379.878 -42.2992 373.105 -32.8661 369.181 -27.4261C350.512 -1.59815 338.502 17.1044 313.959 58.1431C292.606 93.8685 286.567 105.168 288.772 105.129C289.29 105.07 294.522 97.4786 300.268 88.1565C306.013 78.8343 311.464 70.6534 312.253 69.9166C313.133 69.2322 314.494 69.1836 315.209 69.8348C316.418 70.8904 312.779 77.6132 275.581 143.301C263.361 165.04 246.669 194.648 230.247 223.778L230.243 223.785L230.242 223.787C216.538 248.094 203.022 272.069 192.449 290.859C169.205 332.17 138.911 385.27 125.28 408.879C94.6226 461.769 90.9444 468.35 70.4697 507.803C55.0135 537.513 51.1826 545.198 38.0688 573.16C33.4656 583.023 25.8553 598.303 10.9693 627.866C8.66044 632.495 6.97335 636.887 7.16972 637.596C7.44467 638.59 9.34271 635.512 13.0581 628.237C16.0505 622.214 18.8779 617.527 19.2416 617.737C20.2416 618.314 16.6618 632.703 13.4032 641.076C10.2479 649.27 9.89536 653.24 12.826 648.374C14.7881 644.976 17.1327 644.064 17.7612 646.334C17.9576 647.044 16.349 651.72 14.2096 656.685C7.22336 672.564 6.78559 673.743 7.69469 674.267C8.14923 674.53 9.75204 672.594 11.2887 670.142C12.786 667.549 14.8019 664.897 15.6819 664.212C17.1567 662.918 17.2476 662.97 17.8121 665.561C18.1925 667.212 16.7411 672.455 13.2759 681.186L13.1861 681.42C6.96492 697.576 6.92573 697.678 9.4367 700.433L11.4659 702.797L4.56386 716.221C-5.1633 735.168 -1.42457 731.842 10.9156 710.468C16.5435 700.72 21.5025 692.971 21.957 693.233C22.8661 693.758 21.2037 697.687 13.4161 714.535C10.3989 721.021 7.57587 727.38 7.17737 728.7C5.158 734.927 9.52426 728.624 21.2325 708.555C31.6499 690.721 65.2075 636.167 66.1267 635.624C66.23 635.446 67.0089 635.776 67.7362 636.196C69.8271 637.403 68.8774 641.148 63.5637 652.031C60.7901 657.465 59.1939 661.909 59.7125 661.85C60.3219 661.845 62.9574 658.12 65.6423 653.469C68.3271 648.819 71.0142 645.005 71.7146 645.051C72.3241 645.045 73.4935 645.959 74.1837 647.073C75.3947 648.964 75.5889 648.838 79.2031 642.578C83.6435 634.887 85.9321 632.393 87.6594 633.39C89.2958 634.335 89.1286 634.834 77.7478 661.055C69.3574 680.416 66.0516 690.551 68.2413 689.907C68.6174 689.886 71.4426 684.363 74.7056 677.661C83.0881 660.203 83.5404 659.629 85.5404 660.784C88.4496 662.464 87.9769 665.172 82.8967 676.071C80.1893 682.02 75.1112 693.754 71.5676 702.201C67.9207 710.828 63.9617 719.154 62.4106 721.001C59.2958 724.926 49.1353 746.724 49.1296 749.463C49.1194 750.53 52.4901 745.322 57.1763 737.415C63.4755 726.505 66.7182 721.938 72.2393 715.944C76.2217 711.566 79.3655 708.85 79.5619 709.56C80.3082 712.256 76.7421 722.002 70.6146 734.085C66.9632 741.039 63.7417 748.718 63.2422 751.053C62.8336 753.44 60.4505 759.457 57.9351 764.444C54.35 771.913 53.7326 773.822 54.6832 775.325C56.8447 778.719 57.7516 778.408 60.4365 773.758C62.7083 769.823 62.8363 769.181 61.0865 769.483C57.3019 770.16 59.4267 764.59 68.762 749.47C78.0458 734.44 81.8856 730.099 83.1649 733.341C83.7788 735.008 84.322 734.486 86.9037 730.015C88.6075 727.064 90.739 724.002 91.6313 723.086C95.3948 719.297 97.5753 724.968 94.9218 731.663C94.0463 734.019 93.5366 737.422 93.7228 739.199C94.1054 741.685 93.4241 743.915 90.6752 748.886C88.7524 752.426 85.9789 757.86 84.6386 761.021C81.0557 769.327 84.3006 765.596 94.1399 749.813C101.875 737.466 102.728 736.408 108.165 732.87C112.436 730.09 115.411 727.037 119.752 721.197C123.293 716.325 126.37 713.094 127.705 712.672C129.467 712.139 131.173 710.024 134.064 705.016C137.833 698.488 138.428 697.877 142.626 696.485C145.243 695.731 147.677 694.035 148.503 692.604C155.06 681.247 179.456 643.82 180.454 643.562C182.45 643.044 179.548 649.12 158.235 690.234C153.836 698.903 150.071 707.103 149.803 708.618C149.626 710.185 146.803 716.544 143.604 722.925C140.405 729.305 137.491 735.612 137.041 737.021C136.45 739.304 136.49 739.446 138.055 738.203C138.987 737.43 141.416 734.062 143.429 730.575C147.031 724.546 149.118 724.081 146.553 729.993C145.754 731.797 145.822 733.148 146.64 733.621C147.822 734.303 151.077 729.505 169.657 699.213C181.653 679.906 196.709 655.927 203.244 645.868C219.581 620.721 256.202 562.331 272.947 534.796C280.603 522.165 287.254 511.696 287.785 511.406C288.264 511.206 289.212 511.873 289.954 512.897C291.244 515.073 288.704 520.522 284.886 523.565C283.321 524.807 282.521 526.611 281.921 529.961C281.32 533.31 280.044 536.151 277.318 539.823C274.281 544.032 273.482 545.837 273.117 550.038C272.917 552.903 271.877 556.595 270.896 558.294C269.915 559.993 268.329 563.37 267.311 565.764C265.584 570.013 265.663 570.297 268.245 571.073C269.673 571.539 271.58 571.806 272.332 571.763C273.278 571.594 281.259 559.031 296.905 532.769C340.128 460.424 369.902 411.794 377.447 401.245C383.119 393.311 394.053 374.583 421.349 325.834C468.793 241.14 480.501 221.071 483.065 219.57C485.046 218.448 485.085 218.59 484.834 221.545C484.355 226.992 485.882 225.608 490.811 216.649C493.509 211.768 496.427 207.133 497.268 206.307C498.108 205.48 501.113 199.226 503.922 192.262ZM448.56 102.348L445.719 102.02L456.938 83.2182C467.692 65.2214 471.776 59.8283 471.037 64.8869C470.884 65.9911 469.013 69.4419 466.972 72.5564C464.841 75.6185 461.305 82.1624 459.075 87.0752C452.217 102.313 451.919 102.618 448.56 102.348ZM432.718 123.489C425.852 130.972 424.577 129.401 429.999 120.011C434.284 112.588 437.465 109.178 439.101 110.123C441.01 111.225 441.317 114.264 439.778 115.88C438.989 116.616 435.756 120.116 432.718 123.489ZM482.172 -122.568C482.023 -125.039 487.548 -134.608 489.143 -134.641C489.895 -134.684 488.916 -132.149 486.334 -127.678C483.546 -122.848 482.292 -121.307 482.172 -122.568ZM248.86 615.566C248.662 614.021 248.48 613.916 247.912 614.899C247.522 615.575 242.612 622.77 236.764 631.341L236.759 631.349L235.705 632.892C229.402 642.131 220.657 654.968 216.227 661.592C208.296 673.229 206.848 674.898 206.349 672.821C205.957 671.402 222.636 643.352 238.017 619.441L238.924 618.036L240.016 616.344L241.652 613.81L241.653 613.81C252.764 596.605 254.173 594.424 253.859 592.528C253.813 592.252 253.732 591.983 253.638 591.675C253.611 591.587 253.583 591.495 253.555 591.4C253.534 591.326 253.512 591.25 253.49 591.172C252.861 588.901 253.555 586.44 256.727 579.686C258.945 575.004 260.529 570.792 260.32 570.313C259.082 568.048 239.617 601.764 232.439 618.605C228.74 627.321 214.104 653.092 206.172 664.73C201.083 672.285 200.786 672.59 199.135 671.041C197.575 669.544 197.381 669.67 195.345 674.457C194.263 677.171 192.559 680.122 191.627 680.896C190.695 681.669 180.098 700.234 168.058 722.138C156.017 744.043 142.917 767.363 139.097 773.981C131.507 787.127 127.978 796.179 130.88 795.35C131.165 795.276 139.433 783.476 149.107 769.029C158.872 754.634 167.553 742.118 168.446 741.202C171.135 738.224 171.606 739.927 169.793 745.796C168.881 748.846 168.602 751.428 169.263 751.333C169.964 751.379 180.201 734.277 196.336 705.912C210.559 680.856 228.284 650.786 235.618 638.923C244.54 624.519 248.889 616.775 248.86 615.566ZM100.329 746.232C101.721 742.982 102.64 742.439 103.138 744.515C103.531 745.935 100.613 750.569 99.7036 750.044C99.249 749.782 99.5297 748.036 100.329 746.232ZM78.1352 773.126C77.501 773.594 77.1272 774.451 77.2451 774.877C77.3113 775.392 77.8938 775.013 78.3709 773.977C78.9388 772.993 78.821 772.568 78.1352 773.126ZM84.3057 747.951C84.1879 747.526 84.5617 746.668 85.1958 746.2C85.8816 745.642 85.9994 746.067 85.4315 747.051C84.9544 748.087 84.3719 748.466 84.3057 747.951ZM66.7044 760.802C66.1589 760.488 65.4091 761.366 64.895 763.097C63.7904 767.109 64.1024 767.409 65.9612 764.189C66.8906 762.579 67.1589 761.065 66.7044 760.802ZM2.84462 737.884C2.7268 737.458 3.10058 736.601 3.73473 736.133C4.42051 735.575 4.53834 736 3.97041 736.984C3.49335 738.02 2.9108 738.399 2.84462 737.884ZM-8.52452 641.055C-7.61191 638.005 6.99695 606.613 19.7784 580.486C22.0357 575.947 25.5546 567.962 27.6031 562.944C29.5607 557.874 34.3166 546.907 38.0814 538.707C41.8068 530.365 44.7309 522.991 44.4952 522.139C43.9454 520.152 38.7698 529.327 30.6599 546.943C26.9468 555.053 22.4054 563.759 20.5837 566.285C18.5554 569.168 15.3834 575.922 12.1888 583.974C9.45891 591.222 4.94881 601.973 2.33234 607.974C-4.46194 622.892 -10.254 639.222 -10.3731 643.208C-10.4283 646.872 -10.0276 646.388 -8.52452 641.055ZM265.887 150.225C284.113 118.656 289.731 109.976 286.472 118.349C285.88 119.795 278.562 133.099 270.043 147.855C255.355 173.716 247.219 186.547 246.037 185.865C245.765 185.707 254.683 169.631 265.887 150.225ZM243.113 193.239C243.367 191.12 243.225 191.157 241.492 192.899C238.97 195.377 232.181 207.555 231.49 210.853C231.042 213.098 231.339 212.793 233.392 209.447C234.774 207.264 237.434 203.076 239.359 200.372C241.284 197.667 242.961 194.343 243.113 193.239ZM201.654 260.64C203.707 257.294 204.004 256.989 203.608 259.145C202.789 263.084 200.465 267.108 199.736 265.852C199.436 265.321 200.221 262.913 201.654 260.64ZM189.409 283.738C189.109 283.207 188.448 283.303 188.035 284.018C187.622 284.734 187.56 285.89 187.86 286.421C188.251 287.004 188.821 286.857 189.234 286.141C189.647 285.426 189.8 284.321 189.409 283.738ZM163.537 317.212C155.922 330.821 146.503 348.396 142.569 356.26C134.454 372.204 79.7073 465.559 76.6936 468.47C75.0639 470.033 75.1009 469.339 76.6825 464.29C77.8409 461.024 79.4349 455.743 80.2566 452.641C82.1312 445.615 82.5836 445.041 85.201 444.287C87.054 443.807 87.6096 443.054 88.7658 438.952C89.7671 435.118 96.9317 422.919 120.456 384.273C137.201 356.739 155.236 326.132 160.81 315.638C170.861 296.758 176.169 288.614 176.876 291.169C177.112 292.02 171.203 303.514 163.537 317.212ZM63.7331 485.669C70.4152 467.587 69.1302 467.084 60.0203 484.122C58.7205 486.575 57.4748 488.912 56.3776 490.971C54.0442 495.35 52.3833 498.467 52.3046 498.746C52.2406 499.066 53.7322 499.212 55.6245 498.874L59.1241 498.271L63.7331 485.669ZM35.4723 527.9C35.8068 526.901 36.7362 525.291 37.5376 524.323C38.3907 523.265 38.1594 524.086 37.0235 526.053C35.9785 528.073 35.2804 528.862 35.4723 527.9Z" fill="black"/>
</g>
<defs>
<clipPath id="clip0_68_21">
<rect width="614" height="614" fill="white"/>
</clipPath>
</defs>
</svg>
