<svg width="150" height="150" viewBox="0 0 150 150" fill="none" xmlns="http://www.w3.org/2000/svg">
<path d="M75 0C33.579 0 0 33.579 0 75C0 116.421 33.579 150 75 150C116.421 150 150 116.421 150 75C150 33.579 116.421 0 75 0Z" fill="#92BD2D"/>
<path d="M71.379 96.3001C68.808 109.701 58.341 120.273 58.341 120.273C58.341 120.273 36.441 107.457 36.441 86.1631C36.441 64.8691 49.113 54.8251 49.113 54.8251C49.113 54.8251 54.075 60.9391 57.354 63.2791C60.633 65.6191 67.587 68.0191 67.587 68.0191C67.587 68.0191 73.947 82.8961 71.379 96.3001Z" fill="white"/>
<path d="M54.813 51.072C57.2499 49.6037 59.8228 48.374 62.496 47.4L52.683 35.7C52.6637 35.6793 52.6489 35.6548 52.6396 35.6281C52.6303 35.6013 52.6267 35.573 52.6289 35.5448C52.6312 35.5165 52.6393 35.4891 52.6527 35.4642C52.6662 35.4393 52.6847 35.4174 52.707 35.4L58.707 30.354C58.7281 30.3356 58.7527 30.3215 58.7793 30.3127C58.806 30.3039 58.8341 30.3005 58.8621 30.3027C58.89 30.305 58.9173 30.3128 58.9421 30.3257C58.967 30.3386 58.9891 30.3564 59.007 30.378L71.433 45.189C72.5097 45.0664 73.5924 45.0043 74.676 45.003C76.2394 45.0071 77.8008 45.1143 79.35 45.324L90.219 29.802C90.2349 29.7784 90.2554 29.7583 90.2793 29.7428C90.3032 29.7274 90.33 29.717 90.3581 29.7122C90.3861 29.7074 90.4148 29.7084 90.4425 29.7151C90.4702 29.7218 90.4962 29.734 90.519 29.751L96.948 34.251C96.9716 34.2669 96.9918 34.2874 97.0072 34.3113C97.0226 34.3352 97.0331 34.362 97.0378 34.3901C97.0426 34.4182 97.0416 34.4469 97.0349 34.4746C97.0283 34.5022 97.016 34.5282 96.999 34.551L88.05 47.331C90.5542 48.1173 92.9985 49.0828 95.364 50.22C95.364 50.22 88.116 62.7 75.831 62.7C63.546 62.7 54.813 51.072 54.813 51.072Z" fill="white"/>
<path d="M91.6589 120.27C91.6589 120.27 81.1919 109.698 78.6209 96.3001C76.0499 82.9021 82.4219 68.0191 82.4219 68.0191C82.4219 68.0191 89.3759 65.6191 92.6549 63.2791C95.9339 60.9391 100.896 54.8251 100.896 54.8251C100.896 54.8251 113.568 64.8691 113.568 86.1631C113.568 107.457 91.6589 120.27 91.6589 120.27Z" fill="white"/>
</svg>
