<svg width="150" height="150" viewBox="0 0 150 150" fill="none" xmlns="http://www.w3.org/2000/svg">
<path fill-rule="evenodd" clip-rule="evenodd" d="M0 75C0 33.579 33.579 0 75 0C116.421 0 150 33.579 150 75C150 116.421 116.421 150 75 150C33.579 150 0 116.421 0 75ZM58.3409 120.273C58.3409 120.273 68.8079 109.701 71.3789 96.3001C73.9469 82.8961 67.5869 68.0191 67.5869 68.0191C67.5869 68.0191 60.6329 65.6191 57.3539 63.2791C54.0749 60.9391 49.1129 54.8251 49.1129 54.8251C49.1129 54.8251 36.4409 64.8691 36.4409 86.1631C36.4409 107.457 58.3409 120.273 58.3409 120.273ZM54.8131 51.072C57.25 49.6037 59.8229 48.374 62.4961 47.4L52.6831 35.7C52.6638 35.6793 52.6491 35.6548 52.6398 35.6281C52.6304 35.6013 52.6268 35.573 52.6291 35.5448C52.6313 35.5165 52.6394 35.4891 52.6529 35.4642C52.6663 35.4393 52.6848 35.4174 52.7071 35.4L58.7071 30.354C58.7282 30.3356 58.7528 30.3215 58.7795 30.3127C58.8061 30.3039 58.8342 30.3005 58.8622 30.3027C58.8901 30.305 58.9174 30.3128 58.9423 30.3257C58.9672 30.3386 58.9892 30.3564 59.0071 30.378L71.4331 45.189C72.5098 45.0664 73.5925 45.0043 74.6761 45.003C76.2395 45.0071 77.8009 45.1143 79.3501 45.324L90.2191 29.802C90.235 29.7784 90.2555 29.7583 90.2794 29.7428C90.3033 29.7274 90.3301 29.717 90.3582 29.7122C90.3862 29.7074 90.415 29.7084 90.4426 29.7151C90.4703 29.7218 90.4963 29.734 90.5191 29.751L96.9481 34.251C96.9717 34.2669 96.9919 34.2874 97.0073 34.3113C97.0228 34.3352 97.0332 34.362 97.0379 34.3901C97.0427 34.4182 97.0417 34.4469 97.0351 34.4746C97.0284 34.5022 97.0162 34.5282 96.9991 34.551L88.0501 47.331C90.5543 48.1173 92.9986 49.0828 95.3641 50.22C95.3641 50.22 88.1161 62.7 75.8311 62.7C63.5461 62.7 54.8131 51.072 54.8131 51.072ZM78.6209 96.3001C81.1919 109.698 91.6589 120.27 91.6589 120.27C91.6589 120.27 113.568 107.457 113.568 86.1631C113.568 64.8691 100.896 54.8251 100.896 54.8251C100.896 54.8251 95.934 60.9391 92.6549 63.2791C89.3759 65.6191 82.4219 68.0191 82.4219 68.0191C82.4219 68.0191 76.0499 82.9021 78.6209 96.3001Z" fill="black"/>
</svg>
