<svg width="150" height="150" viewBox="0 0 150 150" fill="none" xmlns="http://www.w3.org/2000/svg">
<path fill-rule="evenodd" clip-rule="evenodd" d="M0 75C0 33.579 33.579 0 75 0C116.421 0 150 33.579 150 75C150 116.421 116.421 150 75 150C33.579 150 0 116.421 0 75ZM49.8493 37.3591C57.2939 32.3848 66.0464 29.7297 75 29.7297C87.0063 29.7297 98.521 34.4992 107.011 42.989C115.5 51.4788 120.27 62.9934 120.27 74.9997C120.27 83.9533 117.615 92.7058 112.641 100.15C107.666 107.595 100.596 113.397 92.3241 116.824C84.0521 120.25 74.9498 121.147 66.1683 119.4C57.3867 117.653 49.3204 113.342 42.9893 107.01C36.6582 100.679 32.3466 92.613 30.5999 83.8315C28.8531 75.0499 29.7496 65.9477 33.176 57.6757C36.6024 49.4036 42.4047 42.3334 49.8493 37.3591ZM70.353 109.8C72.0992 110.069 73.8632 110.207 75.63 110.211C80.3327 110.213 84.9863 109.255 89.3064 107.397C93.6266 105.54 97.5224 102.82 100.756 99.4053C103.989 95.9906 106.492 91.9523 108.112 87.5373C109.731 83.1223 110.433 78.4234 110.175 73.7278C109.917 69.0323 108.704 64.4387 106.61 60.2279C104.516 56.0171 101.585 52.2776 97.9971 49.238C94.4088 46.1984 90.2382 43.9225 85.7405 42.5495C81.2427 41.1765 76.5121 40.7353 71.838 41.2527C81.312 48.4287 87.576 60.8637 87.576 74.9997C87.576 89.8497 80.652 102.831 70.353 109.8Z" fill="black"/>
</svg>
