<svg width="150" height="150" viewBox="0 0 150 150" fill="none" xmlns="http://www.w3.org/2000/svg">
<path d="M75 0C33.579 0 0 33.579 0 75C0 116.421 33.579 150 75 150C116.421 150 150 116.421 150 75C150 33.579 116.421 0 75 0Z" fill="#595761"/>
<path d="M75 29.7297C66.0464 29.7297 57.2939 32.3848 49.8493 37.3591C42.4047 42.3334 36.6024 49.4036 33.176 57.6757C29.7496 65.9477 28.8531 75.0499 30.5999 83.8315C32.3466 92.613 36.6582 100.679 42.9893 107.01C49.3204 113.342 57.3867 117.653 66.1683 119.4C74.9498 121.147 84.0521 120.25 92.3241 116.824C100.596 113.397 107.666 107.595 112.641 100.15C117.615 92.7058 120.27 83.9533 120.27 74.9997C120.27 62.9934 115.5 51.4788 107.011 42.989C98.521 34.4992 87.0063 29.7297 75 29.7297ZM75.63 110.211C73.8632 110.207 72.0992 110.069 70.353 109.8C80.652 102.831 87.576 89.8497 87.576 74.9997C87.576 60.8637 81.312 48.4287 71.838 41.2527C76.5121 40.7353 81.2427 41.1765 85.7405 42.5495C90.2382 43.9225 94.4088 46.1984 97.9971 49.238C101.585 52.2776 104.516 56.0171 106.61 60.2279C108.704 64.4387 109.917 69.0323 110.175 73.7278C110.433 78.4234 109.731 83.1223 108.112 87.5373C106.492 91.9523 103.989 95.9906 100.756 99.4053C97.5224 102.82 93.6266 105.54 89.3064 107.397C84.9863 109.255 80.3327 110.213 75.63 110.211Z" fill="white"/>
</svg>
