<svg width="131" height="60" viewBox="0 0 131 60" fill="none" xmlns="http://www.w3.org/2000/svg">
<path d="M20.0005 23.2365C21.6215 22.2988 23.5251 21.9737 25.3654 22.3202C27.2057 22.6667 28.8607 23.6619 30.0297 25.1249L38.4809 20.2455C33.4026 12.6439 23.2066 10.1963 15.1554 14.8446C7.10427 19.493 4.12595 29.5468 8.17145 37.748L16.6227 32.8686C15.9394 31.1246 15.9045 29.1933 16.5243 27.4258C17.1442 25.6582 18.3776 24.1717 20.0005 23.2365V23.2365Z" fill="black"/>
<path d="M26.7257 34.885C29.4296 33.3239 30.3589 29.8713 28.8013 27.1735C27.2437 24.4756 23.789 23.5541 21.0851 25.1152C18.3813 26.6763 17.452 30.1288 19.0096 32.8267C20.5672 35.5245 24.0219 36.4461 26.7257 34.885Z" fill="black"/>
<path d="M27.8104 36.7636C26.1894 37.7013 24.2858 38.0264 22.4455 37.6799C20.6052 37.3333 18.9502 36.3382 17.7812 34.8752L9.32995 39.7545C14.4083 47.3562 24.6043 49.8038 32.6554 45.1554C40.7066 40.5071 43.6849 30.4533 39.6394 22.2521L31.1882 27.1314C31.8715 28.8754 31.9064 30.8067 31.2866 32.5743C30.6667 34.3418 29.4333 35.8283 27.8104 36.7636V36.7636Z" fill="black"/>
<path d="M61.6109 15.68C64.5709 15.68 67.1576 16.28 69.3709 17.48C71.6109 18.68 73.3309 20.3467 74.5309 22.48C75.7309 24.6133 76.3309 27.04 76.3309 29.76C76.3309 32.4533 75.7309 34.88 74.5309 37.04C73.3309 39.2 71.6109 40.9067 69.3709 42.16C67.1576 43.3867 64.5709 44 61.6109 44H49.8109V15.68H61.6109ZM60.8109 36.08C62.8109 36.08 64.3976 35.5333 65.5709 34.44C66.7442 33.3467 67.3309 31.7867 67.3309 29.76C67.3309 27.7333 66.7442 26.1733 65.5709 25.08C64.3976 23.9867 62.8109 23.44 60.8109 23.44H58.6909V36.08H60.8109ZM88.4175 22.76V26.24H97.2175V32.92H88.4175V36.92H98.4175V44H79.5375V15.68H98.4175V22.76H88.4175ZM119.804 44L114.604 36.64L110.284 44H100.164L109.484 29.4L99.764 15.68H110.284L115.284 22.76L119.444 15.68H129.564L120.404 30L130.324 44H119.804Z" fill="black"/>
</svg>
