<svg width="256" height="80" viewBox="0 0 256 80" fill="none" xmlns="http://www.w3.org/2000/svg">
<path d="M0 0H80V62.0787L69.667 80H14.0464V67.4874L32.8557 34.8739L50.1312 44.8032L51.4228 42.5429L31.887 31.2412L19.1322 53.3602H0V0Z" fill="white"/>
<path d="M88 0H168V17.8586H133.61V20.5253H168V44.7677H133.61V47.4343H168V80H100.513V45.1717H88V20.5253H100.513V17.8586H88V0Z" fill="white"/>
<path d="M176 0H204.441L213.089 17.0492L208.931 25.3216L214.254 26.2295L227.393 0H256V30.1639L248.848 44.1866L256 58.2093V80H223.235L218.744 71.2232L222.902 63.0517L217.58 62.1438L208.599 80H176V58.2093L182.985 44.1866L176 30.1639V0Z" fill="white"/>
</svg>
