<svg width="150" height="150" viewBox="0 0 150 150" fill="none" xmlns="http://www.w3.org/2000/svg">
<path d="M75 0C33.579 0 0 33.579 0 75C0 116.421 33.579 150 75 150C116.421 150 150 116.421 150 75C150 33.579 116.421 0 75 0Z" fill="#0C6AC8"/>
<path d="M80.5261 48.0297C80.6175 47.1279 80.782 46.2349 81.0181 45.3597C81.0181 45.3597 84.3841 37.2177 84.5611 35.4777C84.5611 35.3607 84.5881 35.2377 84.6031 35.1027C84.8131 33.2247 85.2031 29.7297 82.2031 29.7297C80.5981 29.7297 79.8511 30.9297 78.9991 32.2887C78.6674 32.8398 78.3049 33.3717 77.9131 33.8817C74.9131 37.6047 69.9121 42.2577 67.0681 44.7357C61.0681 49.9737 55.1611 54.2787 51.7201 56.7897C50.1541 57.9327 49.0981 58.7037 48.7711 59.0217C46.3111 61.4217 37.4791 77.3487 37.4791 77.3487C37.4791 77.3487 34.6231 82.4487 35.6401 83.4957C36.6571 84.5427 39.0931 84.2997 39.0931 84.2997C39.0931 84.2997 71.9731 76.7577 74.9191 76.1607C75.7111 76.0017 76.2691 75.9087 76.7011 75.8397C77.8651 75.6447 78.0751 75.6117 79.4011 74.8077C80.0161 74.4327 80.5351 73.6497 80.9551 72.7767C83.7193 73.8837 86.0907 75.7896 87.7665 78.2509C89.4422 80.7122 90.3463 83.6172 90.3631 86.5947C90.3631 94.8627 83.5111 101.565 75.0631 101.565C71.738 101.574 68.4987 100.51 65.8261 98.5317C64.9861 98.1327 64.2931 97.7517 63.7261 97.4367C62.8441 96.9507 62.2681 96.6327 61.9081 96.6807C60.8521 96.8277 61.1581 97.7997 61.4371 98.6817C61.6261 99.2817 61.8031 99.8397 61.5301 100.068C61.2571 100.296 60.3301 99.4287 59.2381 98.3997C57.7681 96.9957 56.0101 95.3187 55.1791 95.8227C54.5251 96.2217 55.1611 97.3017 55.9411 98.6247L55.9981 98.7237C56.3281 99.2817 56.7091 99.8517 57.0571 100.371C57.7651 101.427 58.3351 102.279 58.0501 102.423C57.7051 102.597 55.3021 100.974 53.2771 98.7237C52.4971 97.8537 51.7411 96.9237 51.0361 96.0237C49.4971 94.1097 48.2131 92.5137 47.4931 92.7027C46.6261 92.9307 47.2831 94.7157 48.2461 96.4347C48.6961 97.2387 49.2241 98.0577 49.6831 98.7687C50.3971 99.8697 50.9371 100.707 50.7421 100.809C50.4781 100.947 48.1471 98.6757 46.5631 95.8107C45.6846 94.1533 44.8935 92.4509 44.1931 90.7107C43.5001 89.0607 42.9931 87.8307 42.6451 87.7107C41.4631 87.2817 41.4631 89.6907 41.9371 93.1677C41.9971 93.6207 42.0901 94.0977 42.2041 94.5807C46.8001 109.446 60.9001 120.27 77.6011 120.27C98.0281 120.27 114.588 104.07 114.588 84.0957C114.6 65.0787 99.6001 49.4997 80.5261 48.0297ZM59.8891 68.2767C56.8891 71.1267 51.4501 70.7907 51.4501 70.7907C51.4501 70.7907 54.3781 66.7857 56.1451 65.1087C57.9121 63.4317 62.1991 60.5757 62.1991 60.5757C62.1991 60.5757 62.8831 65.4297 59.8891 68.2767Z" fill="white"/>
</svg>
