<svg width="150" height="150" viewBox="0 0 150 150" fill="none" xmlns="http://www.w3.org/2000/svg">
<path fill-rule="evenodd" clip-rule="evenodd" d="M0 75C0 33.579 33.579 0 75 0C116.421 0 150 33.579 150 75C150 116.421 116.421 150 75 150C33.579 150 0 116.421 0 75ZM81.0181 45.3597C80.782 46.2349 80.6175 47.1279 80.5261 48.0297C99.6001 49.4997 114.6 65.0787 114.588 84.0957C114.588 104.07 98.0281 120.27 77.6011 120.27C60.9001 120.27 46.8001 109.446 42.2041 94.5807C42.0901 94.0977 41.9971 93.6207 41.9371 93.1677C41.4631 89.6907 41.4631 87.2817 42.6451 87.7107C42.9824 87.8271 43.4692 88.9866 44.1301 90.5607L44.1931 90.7107C44.8935 92.4509 45.6846 94.1533 46.5631 95.8107C48.1471 98.6757 50.4781 100.947 50.7421 100.809C50.9371 100.707 50.3971 99.8697 49.6831 98.7687C49.2241 98.0577 48.6961 97.2387 48.2461 96.4347C47.2831 94.7157 46.6261 92.9307 47.4931 92.7027C48.2131 92.5137 49.4971 94.1097 51.0361 96.0237C51.7411 96.9237 52.4971 97.8537 53.2771 98.7237C55.3021 100.974 57.7051 102.597 58.0501 102.423C58.3351 102.279 57.7651 101.427 57.0571 100.371C56.7091 99.8517 56.3281 99.2817 55.9981 98.7237L55.9411 98.6247C55.1611 97.3017 54.5251 96.2217 55.1791 95.8227C56.0101 95.3187 57.7681 96.9957 59.2381 98.3997C60.3301 99.4287 61.2571 100.296 61.5301 100.068C61.8021 99.8405 61.6273 99.2857 61.4391 98.6881L61.4371 98.6817C61.1581 97.7997 60.8521 96.8277 61.9081 96.6807C62.2672 96.6329 62.8412 96.9492 63.7195 97.4331L63.7261 97.4367C64.2931 97.7517 64.9861 98.1327 65.8261 98.5317C68.4987 100.51 71.738 101.574 75.0631 101.565C83.5111 101.565 90.3631 94.8627 90.3631 86.5947C90.3463 83.6172 89.4422 80.7122 87.7665 78.2509C86.0907 75.7896 83.7193 73.8838 80.9551 72.7767C80.5351 73.6497 80.0161 74.4327 79.4011 74.8077C78.08 75.6087 77.8667 75.6445 76.714 75.8376L76.7011 75.8397C76.2691 75.9087 75.7111 76.0017 74.9191 76.1607C71.9731 76.7577 39.0931 84.2997 39.0931 84.2997C39.0931 84.2997 36.6571 84.5427 35.6401 83.4957C34.6231 82.4487 37.4791 77.3487 37.4791 77.3487C37.4791 77.3487 46.3111 61.4217 48.7711 59.0217C49.0981 58.7037 50.1541 57.9327 51.7201 56.7897L51.7853 56.7421C55.2354 54.2245 61.1059 49.9408 67.0681 44.7357C69.9121 42.2577 74.9131 37.6047 77.9131 33.8817C78.3049 33.3717 78.6674 32.8398 78.9991 32.2887L79.0075 32.2753C79.856 30.9218 80.6034 29.7297 82.2031 29.7297C85.2031 29.7297 84.8131 33.2247 84.6031 35.1027C84.5979 35.1493 84.5913 35.1945 84.5849 35.2384C84.5727 35.3219 84.5611 35.4011 84.5611 35.4777C84.3841 37.2177 81.0181 45.3597 81.0181 45.3597ZM51.4501 70.7907C51.4501 70.7907 56.8891 71.1267 59.8891 68.2767C62.8831 65.4297 62.1991 60.5757 62.1991 60.5757C62.1991 60.5757 57.9121 63.4317 56.1451 65.1087C54.3781 66.7857 51.4501 70.7907 51.4501 70.7907Z" fill="black"/>
</svg>
