<svg width="150" height="150" viewBox="0 0 150 150" fill="none" xmlns="http://www.w3.org/2000/svg">
<path fill-rule="evenodd" clip-rule="evenodd" d="M0 75C0 33.579 33.579 0 75 0C116.421 0 150 33.579 150 75C150 116.421 116.421 150 75 150C33.579 150 0 116.421 0 75ZM81.993 77.2289H103.164C103.175 77.2265 103.185 77.2218 103.194 77.2153C103.203 77.2088 103.211 77.2005 103.216 77.1909C103.222 77.1813 103.225 77.1707 103.227 77.1597C103.228 77.1487 103.227 77.1375 103.224 77.1269L88.617 29.9339C88.6115 29.9183 88.6014 29.9048 88.588 29.8951C88.5746 29.8855 88.5585 29.8802 88.542 29.8799H56.742C56.7296 29.8798 56.7174 29.8826 56.7064 29.8881C56.6953 29.8936 56.6857 29.9017 56.6784 29.9117C56.6711 29.9216 56.6662 29.9332 56.6642 29.9454C56.6622 29.9576 56.6632 29.9701 56.667 29.9819L66.072 57.1619C66.0731 57.1653 66.0737 57.1688 66.0739 57.1723C66.074 57.1748 66.0738 57.1773 66.0735 57.1798C66.0725 57.1857 66.0703 57.1914 66.0668 57.1964C66.0633 57.2013 66.0587 57.2054 66.0533 57.2083C66.048 57.2111 66.0421 57.2127 66.036 57.2129H46.836C46.8217 57.2136 46.8079 57.2182 46.7959 57.226C46.7839 57.2339 46.7742 57.2447 46.7678 57.2575C46.7614 57.2704 46.7585 57.2846 46.7594 57.2989C46.7603 57.3132 46.765 57.327 46.773 57.3389L93.96 120.087C93.9708 120.101 93.9863 120.112 94.0038 120.116C94.0213 120.12 94.0398 120.118 94.0561 120.11C94.0723 120.103 94.0854 120.089 94.093 120.073C94.0981 120.062 94.1006 120.05 94.1004 120.039C94.1003 120.033 94.0995 120.027 94.098 120.021L81.954 77.2769C81.9533 77.2738 81.9529 77.2707 81.9529 77.2675C81.953 77.2647 81.9533 77.2619 81.9539 77.2592C81.9553 77.2534 81.9579 77.2479 81.9617 77.2433C81.9635 77.241 81.9655 77.239 81.9678 77.2373C81.9702 77.2354 81.9728 77.2337 81.9757 77.2324C81.9811 77.2299 81.987 77.2287 81.993 77.2289Z" fill="black"/>
</svg>
