<svg width="150" height="150" viewBox="0 0 150 150" fill="none" xmlns="http://www.w3.org/2000/svg">
<path d="M75 0C33.579 0 0 33.579 0 75C0 116.421 33.579 150 75 150C116.421 150 150 116.421 150 75C150 33.579 116.421 0 75 0Z" fill="#F2D94E"/>
<path d="M103.164 77.2289H81.993C81.987 77.2287 81.9811 77.2299 81.9757 77.2324C81.9702 77.2349 81.9655 77.2386 81.9617 77.2433C81.9579 77.2479 81.9553 77.2534 81.9539 77.2592C81.9526 77.265 81.9526 77.2711 81.954 77.2769L94.098 120.021C94.1024 120.038 94.1007 120.057 94.093 120.073C94.0854 120.089 94.0723 120.103 94.0561 120.11C94.0398 120.118 94.0213 120.12 94.0038 120.116C93.9863 120.112 93.9708 120.101 93.96 120.087L46.773 57.3389C46.765 57.327 46.7603 57.3132 46.7594 57.2989C46.7585 57.2846 46.7614 57.2704 46.7678 57.2576C46.7742 57.2447 46.7839 57.2339 46.7959 57.226C46.8079 57.2182 46.8217 57.2136 46.836 57.2129H66.036C66.0421 57.2127 66.048 57.2111 66.0533 57.2083C66.0587 57.2054 66.0633 57.2013 66.0668 57.1964C66.0703 57.1914 66.0725 57.1858 66.0735 57.1798C66.0744 57.1738 66.0739 57.1677 66.072 57.1619L56.667 29.9819C56.6632 29.9701 56.6622 29.9576 56.6642 29.9454C56.6662 29.9332 56.6711 29.9216 56.6784 29.9117C56.6857 29.9017 56.6953 29.8936 56.7064 29.8881C56.7174 29.8826 56.7296 29.8798 56.742 29.8799H88.542C88.5585 29.8802 88.5746 29.8855 88.588 29.8951C88.6014 29.9048 88.6115 29.9183 88.617 29.9339L103.224 77.1269C103.227 77.1375 103.228 77.1487 103.227 77.1597C103.225 77.1707 103.222 77.1813 103.216 77.1909C103.211 77.2005 103.203 77.2088 103.194 77.2153C103.185 77.2218 103.175 77.2265 103.164 77.2289Z" fill="white"/>
</svg>
