<svg width="150" height="150" viewBox="0 0 150 150" fill="none" xmlns="http://www.w3.org/2000/svg">
<path d="M75 0C33.579 0 0 33.579 0 75C0 116.421 33.579 150 75 150C116.421 150 150 116.421 150 75C150 33.579 116.421 0 75 0Z" fill="#EF90E6"/>
<path d="M120.246 74.9607L97.761 62.6607L102.156 47.8048C102.158 47.7975 102.159 47.7897 102.157 47.7823C102.156 47.7748 102.152 47.7679 102.147 47.7624C102.142 47.7568 102.135 47.7528 102.128 47.7508C102.12 47.7487 102.112 47.7487 102.105 47.7507L87.24 52.0648L75.039 29.7538C75.0351 29.7469 75.0294 29.7412 75.0225 29.7372C75.0157 29.7333 75.0079 29.7312 75 29.7312C74.9921 29.7312 74.9843 29.7333 74.9775 29.7372C74.9706 29.7412 74.9649 29.7469 74.961 29.7538L62.76 52.0648L47.895 47.7537C47.8876 47.7517 47.8799 47.7517 47.8725 47.7538C47.8651 47.7558 47.8585 47.7598 47.8532 47.7654C47.848 47.7709 47.8443 47.7778 47.8427 47.7853C47.8411 47.7927 47.8415 47.8005 47.844 47.8077L52.239 62.6637L29.754 74.9638C29.7471 74.9677 29.7414 74.9734 29.7375 74.9802C29.7335 74.9871 29.7314 74.9948 29.7314 75.0027C29.7314 75.0107 29.7335 75.0184 29.7375 75.0253C29.7414 75.0321 29.7471 75.0378 29.754 75.0417L52.056 87.2368L47.856 101.472C47.8535 101.479 47.8531 101.487 47.8547 101.494C47.8563 101.502 47.86 101.509 47.8652 101.514C47.8705 101.52 47.8771 101.524 47.8845 101.526C47.8919 101.528 47.8996 101.528 47.907 101.526L62.43 97.3258L74.973 120.258C74.977 120.265 74.9826 120.27 74.9895 120.274C74.9963 120.278 75.0041 120.28 75.012 120.28C75.0199 120.28 75.0277 120.278 75.0345 120.274C75.0414 120.27 75.0471 120.265 75.051 120.258L87.594 97.3258L102.117 101.526C102.124 101.528 102.132 101.528 102.14 101.526C102.147 101.524 102.154 101.52 102.159 101.514C102.164 101.509 102.168 101.502 102.169 101.494C102.171 101.487 102.17 101.479 102.168 101.472L97.968 87.2368L120.27 75.0417C120.277 75.0362 120.283 75.0286 120.286 75.0199C120.289 75.0111 120.289 75.0017 120.286 74.9929C120.284 74.984 120.278 74.9762 120.271 74.9705C120.264 74.9647 120.255 74.9613 120.246 74.9607ZM90.954 75.0387L80.664 80.6637L75.039 90.9537C75.0355 90.9607 75.0301 90.9665 75.0235 90.9706C75.0169 90.9747 75.0093 90.9768 75.0015 90.9768C74.9937 90.9768 74.9861 90.9747 74.9795 90.9706C74.9729 90.9665 74.9675 90.9607 74.964 90.9537L69.336 80.6637L59.046 75.0387C59.0391 75.0348 59.0335 75.0291 59.0295 75.0223C59.0255 75.0154 59.0234 75.0077 59.0234 74.9997C59.0234 74.9918 59.0255 74.9841 59.0295 74.9772C59.0335 74.9704 59.0391 74.9647 59.046 74.9607L69.336 69.3358L74.964 59.0458C74.9675 59.0388 74.9729 59.033 74.9795 59.0289C74.9861 59.0248 74.9937 59.0227 75.0015 59.0227C75.0093 59.0227 75.0169 59.0248 75.0235 59.0289C75.0301 59.033 75.0355 59.0388 75.039 59.0458L80.664 69.3358L90.954 74.9607C90.9609 74.9647 90.9666 74.9704 90.9705 74.9772C90.9745 74.9841 90.9766 74.9918 90.9766 74.9997C90.9766 75.0077 90.9745 75.0154 90.9705 75.0223C90.9666 75.0291 90.9609 75.0348 90.954 75.0387Z" fill="white"/>
</svg>
