<svg width="150" height="150" viewBox="0 0 150 150" fill="none" xmlns="http://www.w3.org/2000/svg">
<path fill-rule="evenodd" clip-rule="evenodd" d="M0 75C0 33.579 33.579 0 75 0C116.421 0 150 33.579 150 75C150 116.421 116.421 150 75 150C33.579 150 0 116.421 0 75ZM97.761 62.6607L120.246 74.9607C120.255 74.9613 120.264 74.9647 120.271 74.9705C120.278 74.9762 120.284 74.984 120.286 74.9929C120.289 75.0017 120.289 75.0111 120.286 75.0199C120.283 75.0286 120.277 75.0362 120.27 75.0417L97.968 87.2368L102.168 101.472C102.17 101.479 102.171 101.487 102.169 101.494C102.168 101.502 102.164 101.509 102.159 101.514C102.154 101.52 102.147 101.524 102.14 101.526C102.132 101.528 102.124 101.528 102.117 101.526L87.594 97.3258L75.051 120.258C75.049 120.261 75.0465 120.264 75.0437 120.267C75.041 120.27 75.0379 120.272 75.0345 120.274C75.0307 120.276 75.0266 120.278 75.0224 120.279C75.019 120.28 75.0155 120.28 75.012 120.28C75.0041 120.28 74.9963 120.278 74.9895 120.274C74.9826 120.27 74.977 120.265 74.973 120.258L62.43 97.3258L47.907 101.526C47.8996 101.528 47.8919 101.528 47.8845 101.526C47.8771 101.524 47.8705 101.52 47.8652 101.514C47.86 101.509 47.8563 101.502 47.8547 101.494C47.8531 101.487 47.8535 101.479 47.856 101.472L52.056 87.2368L29.754 75.0417C29.7471 75.0378 29.7414 75.0321 29.7375 75.0253C29.7335 75.0184 29.7314 75.0107 29.7314 75.0027C29.7314 74.9948 29.7335 74.9871 29.7375 74.9802C29.7414 74.9734 29.7471 74.9677 29.754 74.9638L52.239 62.6637L47.844 47.8078C47.8415 47.8005 47.8411 47.7927 47.8427 47.7853C47.8433 47.7825 47.8442 47.7799 47.8453 47.7774C47.8472 47.773 47.8499 47.7689 47.8532 47.7654C47.8585 47.7598 47.8651 47.7558 47.8725 47.7538C47.8799 47.7517 47.8876 47.7517 47.895 47.7537L62.76 52.0648L74.961 29.7537C74.965 29.7469 74.9706 29.7412 74.9775 29.7372C74.9843 29.7333 74.9921 29.7312 75 29.7312C75.0079 29.7312 75.0157 29.7333 75.0225 29.7372C75.0294 29.7412 75.0351 29.7469 75.039 29.7537L87.24 52.0648L102.105 47.7507C102.112 47.7487 102.12 47.7487 102.128 47.7508C102.135 47.7528 102.142 47.7568 102.147 47.7624C102.152 47.7679 102.156 47.7748 102.157 47.7823C102.159 47.7897 102.158 47.7975 102.156 47.8048L97.761 62.6607ZM80.664 80.6637L90.954 75.0387C90.9609 75.0348 90.9666 75.0291 90.9705 75.0223C90.9745 75.0154 90.9766 75.0077 90.9766 74.9997C90.9766 74.9933 90.9752 74.987 90.9726 74.9812C90.9719 74.9798 90.9713 74.9785 90.9705 74.9772C90.9666 74.9704 90.9609 74.9647 90.954 74.9607L80.664 69.3357L75.039 59.0457C75.0373 59.0423 75.0351 59.0391 75.0325 59.0363C75.0299 59.0335 75.0269 59.0309 75.0235 59.0289C75.0169 59.0248 75.0093 59.0227 75.0015 59.0227C74.9937 59.0227 74.9861 59.0248 74.9795 59.0289C74.9729 59.033 74.9675 59.0388 74.964 59.0457L69.336 69.3357L59.046 74.9607C59.0391 74.9647 59.0335 74.9704 59.0295 74.9772C59.0255 74.9841 59.0234 74.9918 59.0234 74.9997C59.0234 75.0077 59.0255 75.0154 59.0295 75.0223C59.0335 75.0291 59.0391 75.0348 59.046 75.0387L69.336 80.6637L74.964 90.9538C74.9675 90.9607 74.9729 90.9665 74.9795 90.9706C74.9861 90.9747 74.9937 90.9768 75.0015 90.9768C75.0093 90.9768 75.0169 90.9747 75.0235 90.9706C75.0301 90.9665 75.0355 90.9607 75.039 90.9538L80.664 80.6637Z" fill="black"/>
</svg>
