<svg width="150" height="150" viewBox="0 0 150 150" fill="none" xmlns="http://www.w3.org/2000/svg">
<circle cx="75" cy="75" r="75" fill="white"/>
<path d="M51.3832 39.1138C43.2985 40.3489 36.6933 45.307 32.8358 53.0177C31.7614 55.188 31.0216 57.323 30.4756 59.9697C30.0705 61.8929 30.0176 62.6164 30 65.4571C30 68.2097 30.0528 69.0213 30.3875 70.5741C31.5324 75.8674 34.1569 81.249 38.2257 86.6836C42.2945 92.1004 48.9878 98.7877 55.8748 104.293C60.8067 108.245 68.134 113.397 72.3614 115.903C74.7745 117.332 75.1796 117.35 77.3813 116.044C87.0866 110.257 99.064 100.729 105.951 93.3356C113.93 84.7603 118.14 77.5613 119.672 69.8859C120.148 67.5568 120.095 62.7928 119.584 60.199C117.946 51.9943 113.102 45.1835 106.356 41.6723C104.242 40.5606 103.186 40.1548 100.966 39.5902C98.5708 38.9726 94.3611 38.8138 91.8952 39.2373C89.0593 39.7313 85.607 41.0547 83.3701 42.4839C80.6223 44.2484 77.6808 47.0891 76.0075 49.5947C75.4966 50.3534 75.0387 50.9886 74.9858 50.9886C74.933 50.9886 74.4574 50.3357 73.929 49.5241C72.6608 47.6185 69.3494 44.3013 67.4119 43.0132C64.5056 41.09 61.3879 39.8196 58.147 39.2549C56.7555 39.0079 52.581 38.9197 51.3832 39.1138Z" fill="#D9D9D9"/>
</svg>
