<svg width="150" height="150" viewBox="0 0 150 150" fill="none" xmlns="http://www.w3.org/2000/svg">
<path d="M75 0C33.579 0 0 33.579 0 75C0 116.421 33.579 150 75 150C116.421 150 150 116.421 150 75C150 33.579 116.421 0 75 0Z" fill="#D3425F"/>
<path d="M117.252 81.8458V82.2778C117.252 82.4608 117.252 82.6408 117.252 82.8238C116.652 103.599 97.9709 120.27 75.0149 120.27C51.6779 120.27 32.7629 103.044 32.7629 81.7918C32.7629 71.5318 37.1699 62.2108 44.3549 55.3138C44.3369 65.3128 44.5049 75.6538 45.2849 75.4768C47.3699 74.9998 45.7409 44.0248 45.3599 37.2568C45.8383 35.377 46.8536 33.6771 48.2818 32.3646C49.7101 31.0521 51.4896 30.1839 53.403 29.8657C55.3165 29.5476 57.2812 29.7934 59.0573 30.5732C60.8334 31.353 62.3441 32.6329 63.4049 34.2568H66.2999C67.4457 33.081 68.8636 32.2057 70.4283 31.7083C71.9929 31.2109 73.656 31.1068 75.2704 31.4052C76.8848 31.7036 78.4008 32.3953 79.6843 33.4191C80.9678 34.4428 81.9791 35.7671 82.6289 37.2748H85.0739C86.295 36.5148 87.6657 36.0273 89.0924 35.8456C90.5192 35.664 91.9683 35.7924 93.3408 36.2222C94.7134 36.652 95.977 37.373 97.0453 38.336C98.1136 39.2989 98.9615 40.4811 99.5309 41.8018H106.2C106.255 41.8013 106.309 41.8158 106.356 41.8438C106.656 41.8138 106.956 41.8018 107.277 41.8018C108.589 41.8014 109.887 42.0595 111.099 42.5613C112.311 43.063 113.412 43.7986 114.34 44.7261C115.267 45.6535 116.003 46.7547 116.505 47.9665C117.006 49.1784 117.264 50.4772 117.264 51.7888V81.8458H117.252Z" fill="white"/>
</svg>
