<svg width="150" height="150" viewBox="0 0 150 150" fill="none" xmlns="http://www.w3.org/2000/svg">
<path fill-rule="evenodd" clip-rule="evenodd" d="M0 75C0 33.579 33.579 0 75 0C116.421 0 150 33.579 150 75C150 116.421 116.421 150 75 150C33.579 150 0 116.421 0 75ZM117.252 82.2778V81.8458H117.264V51.7888C117.264 50.4772 117.006 49.1784 116.505 47.9665C116.003 46.7547 115.267 45.6535 114.34 44.7261C113.412 43.7986 112.311 43.063 111.099 42.5613C109.887 42.0595 108.589 41.8014 107.277 41.8018C106.956 41.8018 106.656 41.8138 106.356 41.8438C106.309 41.8158 106.255 41.8013 106.2 41.8018H99.5309C98.9615 40.4811 98.1136 39.2989 97.0453 38.336C95.977 37.373 94.7134 36.652 93.3408 36.2222C91.9683 35.7924 90.5192 35.664 89.0924 35.8456C87.6657 36.0273 86.295 36.5148 85.0739 37.2748H82.6289C81.9791 35.7671 80.9678 34.4428 79.6843 33.4191C78.4008 32.3953 76.8848 31.7036 75.2704 31.4052C73.656 31.1068 71.9929 31.2109 70.4283 31.7083C68.8636 32.2057 67.4457 33.081 66.2999 34.2568H63.4049C62.3441 32.6329 60.8334 31.353 59.0573 30.5732C57.2812 29.7934 55.3165 29.5476 53.403 29.8657C51.4896 30.1839 49.7101 31.0521 48.2818 32.3646C46.8536 33.6771 45.8383 35.377 45.3599 37.2568C45.7409 44.0248 47.3699 74.9998 45.2849 75.4768C44.5049 75.6538 44.3369 65.3128 44.3549 55.3138C37.1699 62.2108 32.7629 71.5318 32.7629 81.7918C32.7629 103.044 51.6779 120.27 75.0149 120.27C97.9709 120.27 116.652 103.599 117.252 82.8238V82.2778Z" fill="black"/>
</svg>
