<svg width="150" height="150" viewBox="0 0 150 150" fill="none" xmlns="http://www.w3.org/2000/svg">
<path fill-rule="evenodd" clip-rule="evenodd" d="M0 75C0 33.579 33.579 0 75 0C116.421 0 150 33.579 150 75C150 116.421 116.421 150 75 150C33.579 150 0 116.421 0 75ZM85.1669 108.474C85.1669 108.474 107.22 103.95 108.837 84.0447C110.454 64.1397 88.8059 52.7577 88.8059 52.7577C88.8059 52.7577 97.1009 67.4757 87.5549 67.9737C81.6479 68.2827 82.3079 63.5187 83.1269 57.6177L83.154 57.4177C83.6395 53.8361 84.1789 49.8573 83.3189 46.3497C81.0209 36.9837 72.7919 29.7297 72.7919 29.7297C72.7919 29.7297 77.2679 44.5947 69.9689 52.7577C68.6498 54.232 66.4461 55.8042 63.9394 57.5925L63.8999 57.6207C60.5999 59.9577 56.8139 62.6667 53.7809 65.9997C50.5799 69.5307 46.4669 78.2157 46.4669 78.2157C45.5958 76.8807 45.1176 75.3276 45.0869 73.7337C45.0967 72.1401 45.2828 70.5524 45.6419 68.9997C45.6419 68.9997 32.8109 92.6097 50.1719 110.553C70.3289 131.382 97.5269 112.245 97.5269 112.245C97.5269 112.245 78.5249 118.158 68.8199 111.279C59.1149 104.4 62.6489 89.7837 62.6489 89.7837C62.6489 89.7837 63.1439 93.8097 66.2999 96.3237C65.7359 95.1402 65.4428 93.8458 65.4419 92.5347C65.4419 87.5787 69.5309 83.5617 74.5709 83.5617C79.6109 83.5617 83.6999 87.5787 83.6999 92.5347C83.6928 94.2202 83.2105 95.8695 82.3084 97.2933C81.4063 98.7171 80.1209 99.8575 78.5999 100.584C81.7918 100.311 84.7705 98.8687 86.9639 96.5337C89.4239 94.0017 90.9989 87.1497 90.9989 87.1497C90.9989 87.1497 93.1709 95.5617 92.0519 99.6507C90.9329 103.74 85.1669 108.474 85.1669 108.474Z" fill="black"/>
</svg>
