<svg width="150" height="150" viewBox="0 0 150 150" fill="none" xmlns="http://www.w3.org/2000/svg">
<path d="M75 0C33.579 0 0 33.579 0 75C0 116.421 33.579 150 75 150C116.421 150 150 116.421 150 75C150 33.579 116.421 0 75 0Z" fill="#FBA64C"/>
<path d="M108.837 84.0447C107.22 103.95 85.167 108.474 85.167 108.474C85.167 108.474 90.933 103.74 92.052 99.6507C93.171 95.5617 90.999 87.1497 90.999 87.1497C90.999 87.1497 89.424 94.0017 86.964 96.5337C84.7706 98.8687 81.792 100.311 78.6 100.584C80.121 99.8575 81.4064 98.7171 82.3085 97.2933C83.2107 95.8695 83.693 94.2202 83.7 92.5347C83.7 87.5787 79.611 83.5617 74.571 83.5617C69.531 83.5617 65.442 87.5787 65.442 92.5347C65.443 93.8458 65.7361 95.1402 66.3 96.3237C63.144 93.8097 62.649 89.7837 62.649 89.7837C62.649 89.7837 59.115 104.4 68.82 111.279C78.525 118.158 97.527 112.245 97.527 112.245C97.527 112.245 70.329 131.382 50.172 110.553C32.811 92.6097 45.642 68.9997 45.642 68.9997C45.2829 70.5524 45.0968 72.1401 45.087 73.7337C45.1177 75.3276 45.5959 76.8807 46.467 78.2157C46.467 78.2157 50.58 69.5307 53.781 65.9997C56.814 62.6667 60.6 59.9577 63.9 57.6207C66.423 55.8207 68.643 54.2397 69.969 52.7577C77.268 44.5947 72.792 29.7297 72.792 29.7297C72.792 29.7297 81.021 36.9837 83.319 46.3497C84.195 49.9227 83.619 53.9847 83.127 57.6177C82.308 63.5187 81.648 68.2827 87.555 67.9737C97.101 67.4757 88.806 52.7577 88.806 52.7577C88.806 52.7577 110.454 64.1397 108.837 84.0447Z" fill="white"/>
</svg>
