<svg width="150" height="150" viewBox="0 0 150 150" fill="none" xmlns="http://www.w3.org/2000/svg">
<path fill-rule="evenodd" clip-rule="evenodd" d="M0 75C0 33.579 33.579 0 75 0C116.421 0 150 33.579 150 75C150 116.421 116.421 150 75 150C33.579 150 0 116.421 0 75ZM107.998 54.6981C108.546 54.3126 109.1 53.9228 109.662 53.529C118.77 47.142 120.279 35.793 120.279 35.793C120.279 35.793 111.297 41.586 106.914 43.509C88.827 51.447 72.858 55.614 61.341 56.514C43.959 57.876 29.739 70.014 29.739 85.749C29.739 101.484 43.887 114.249 61.341 114.249C74.604 114.249 85.959 106.878 90.648 96.429C90.66 96.4019 89.8385 96.6021 88.5384 96.919C83.6417 98.1124 71.9549 100.961 72.429 99.555C72.5448 99.2139 74.7408 98.2411 77.8766 96.852C82.0499 95.0032 87.888 92.417 92.703 89.601C97.548 86.769 99.78 80.769 99.78 80.769C99.78 80.769 91.605 84.732 87.48 85.737C79.161 87.765 71.841 87.546 71.841 87.336C71.841 87.2271 72.507 87.0175 73.744 86.6282C77.7915 85.3545 87.9519 82.1569 100.893 74.271C108.843 69.414 111 61.071 111 61.071C111 61.071 102.261 66.276 96.981 67.995C84.453 72.069 73.023 73.296 73.023 72.747C73.023 72.1389 75.6847 71.1118 79.7215 69.554C83.5321 68.0834 88.5681 66.14 93.747 63.63C98.7339 61.2161 103.119 58.1305 107.998 54.6981Z" fill="black"/>
</svg>
