<svg width="150" height="150" viewBox="0 0 150 150" fill="none" xmlns="http://www.w3.org/2000/svg">
<path d="M75 0C33.579 0 0 33.579 0 75C0 116.421 33.579 150 75 150C116.421 150 150 116.421 150 75C150 33.579 116.421 0 75 0Z" fill="#A1BBEC"/>
<path d="M109.662 53.5291C104.097 57.4291 99.294 60.9451 93.747 63.6301C83.082 68.7991 73.023 71.5651 73.023 72.7471C73.023 73.2961 84.453 72.0691 96.981 67.9951C102.261 66.2761 111 61.0711 111 61.0711C111 61.0711 108.843 69.4141 100.893 74.2711C83.997 84.5671 71.841 86.8711 71.841 87.3361C71.841 87.5461 79.161 87.7651 87.48 85.7371C91.605 84.7321 99.78 80.7691 99.78 80.7691C99.78 80.7691 97.548 86.7691 92.703 89.6011C84.27 94.5331 72.699 98.7601 72.429 99.5551C71.829 101.334 90.705 96.3001 90.648 96.4291C85.959 106.878 74.604 114.249 61.341 114.249C43.887 114.249 29.739 101.484 29.739 85.7491C29.739 70.0141 43.959 57.8761 61.341 56.5141C72.858 55.6141 88.827 51.4471 106.914 43.5091C111.297 41.5861 120.279 35.7931 120.279 35.7931C120.279 35.7931 118.77 47.1421 109.662 53.5291Z" fill="white"/>
</svg>
