<svg width="150" height="150" viewBox="0 0 150 150" fill="none" xmlns="http://www.w3.org/2000/svg">
<path fill-rule="evenodd" clip-rule="evenodd" d="M0 75C0 33.579 33.579 0 75 0C116.421 0 150 33.579 150 75C150 116.421 116.421 150 75 150C33.579 150 0 116.421 0 75ZM108.681 103.716C106.737 105.849 109.41 107.346 112.137 108.867L112.139 108.868C114.814 110.358 117.528 111.87 115.956 114.03C114.216 116.412 104.784 119.457 94.98 119.958C86.808 120.375 77.457 120.375 74.28 119.958C49.5 116.7 29.73 98.5707 29.73 74.0787C29.73 49.5867 49.998 29.7297 75 29.7297C100.002 29.7297 120.27 49.5867 120.27 74.0787C120.271 85.0635 116.133 95.6452 108.681 103.716ZM66.5651 73.5368C67.8917 72.2102 68.637 70.4109 68.637 68.5347H64.263C62.6499 68.5351 61.0995 67.9102 59.9375 66.7913C58.7756 65.6724 58.0925 64.1467 58.032 62.5347C56.9621 63.1305 56.0701 64.0002 55.4475 65.0546C54.8248 66.1091 54.494 67.3102 54.489 68.5347C54.489 70.4109 55.2343 72.2102 56.5609 73.5368C57.8875 74.8634 59.6868 75.6087 61.563 75.6087C63.4391 75.6087 65.2384 74.8634 66.5651 73.5368ZM82.0566 73.4638C83.3822 74.763 85.1694 75.4827 87.0254 75.4648C87.9447 75.4745 88.8569 75.303 89.71 74.9603C90.5635 74.6173 91.3411 74.1095 91.9983 73.466C92.6555 72.8224 93.1795 72.0557 93.5402 71.2096C93.901 70.3634 94.0916 69.4545 94.101 68.5347C94.0963 67.3105 93.7659 66.1096 93.1438 65.0552C92.5217 64.0008 91.6303 63.1309 90.561 62.5347C90.4997 64.1469 89.816 65.6727 88.6536 66.7915C87.4911 67.9103 85.9404 68.5351 84.327 68.5347H79.956C79.975 70.3913 80.7306 72.1643 82.0566 73.4638ZM87.0254 75.4648C87.0259 75.4648 87.0265 75.4647 87.027 75.4647H87.024C87.0245 75.4647 87.0249 75.4648 87.0254 75.4648Z" fill="black"/>
</svg>
