<svg width="150" height="150" viewBox="0 0 150 150" fill="none" xmlns="http://www.w3.org/2000/svg">
<path d="M75 0C33.579 0 0 33.579 0 75C0 116.421 33.579 150 75 150C116.421 150 150 116.421 150 75C150 33.579 116.421 0 75 0Z" fill="#5F6DBC"/>
<path d="M112.137 108.867C109.41 107.346 106.737 105.849 108.681 103.716C116.133 95.6452 120.271 85.0634 120.27 74.0787C120.27 49.5867 100.002 29.7297 75 29.7297C49.998 29.7297 29.73 49.5867 29.73 74.0787C29.73 98.5707 49.5 116.7 74.28 119.958C77.457 120.375 86.808 120.375 94.98 119.958C104.784 119.457 114.216 116.412 115.956 114.03C117.528 111.87 114.813 110.358 112.137 108.867ZM68.637 68.5347C68.637 70.4109 67.8917 72.2102 66.5651 73.5368C65.2384 74.8634 63.4391 75.6087 61.563 75.6087C59.6868 75.6087 57.8875 74.8634 56.5609 73.5368C55.2343 72.2102 54.489 70.4109 54.489 68.5347C54.494 67.3102 54.8248 66.1091 55.4475 65.0546C56.0701 64.0002 56.9621 63.1305 58.032 62.5347C58.0925 64.1467 58.7756 65.6724 59.9375 66.7913C61.0995 67.9102 62.6499 68.5351 64.263 68.5347H68.637ZM87.027 75.4647C85.1704 75.4831 83.3826 74.7634 82.0566 73.4638C80.7306 72.1643 79.975 70.3913 79.956 68.5347H84.327C85.9404 68.5351 87.4911 67.9103 88.6536 66.7915C89.816 65.6727 90.4997 64.1469 90.561 62.5347C91.6303 63.1309 92.5217 64.0008 93.1438 65.0552C93.7659 66.1096 94.0963 67.3105 94.101 68.5347C94.0916 69.4545 93.901 70.3634 93.5402 71.2096C93.1795 72.0557 92.6555 72.8224 91.9983 73.466C91.3411 74.1095 90.5635 74.6173 89.71 74.9603C88.8565 75.3032 87.9438 75.4746 87.024 75.4647H87.027Z" fill="white"/>
</svg>
