<svg width="150" height="150" viewBox="0 0 150 150" fill="none" xmlns="http://www.w3.org/2000/svg">
<path fill-rule="evenodd" clip-rule="evenodd" d="M0 75C0 33.579 33.579 0 75 0C116.421 0 150 33.579 150 75C150 116.421 116.421 150 75 150C33.579 150 0 116.421 0 75ZM79.457 118.437C89.0203 117.564 97.9753 113.368 104.766 106.578C120.801 90.5402 113.832 31.3982 113.832 31.3982C113.832 31.3982 62.733 32.4602 46.698 48.4982C42.8844 52.3112 39.8593 56.838 37.7953 61.8202C35.7313 66.8024 34.6691 72.1425 34.6691 77.5352C34.6691 82.928 35.7313 88.2679 37.7953 93.2502C39.8593 98.2324 42.8844 102.759 46.698 106.572C46.8514 106.724 47.0087 106.876 47.1655 107.028C47.3185 107.176 47.4709 107.324 47.619 107.472L60.9 91.0862V73.0022L65.322 86.6012L74.8561 75.8522L72.9961 63.5342L78.282 70.9952L91.9711 55.6412L82.347 73.0022L91.9711 75.8522L79.8 78.5192L69.099 89.4001L85.9291 91.0862L65.3191 95.5352L52.4191 111.357C60.327 116.805 69.8939 119.31 79.457 118.437Z" fill="black"/>
</svg>
