<svg width="150" height="150" viewBox="0 0 150 150" fill="none" xmlns="http://www.w3.org/2000/svg">
<path d="M75 0C33.579 0 0 33.579 0 75C0 116.421 33.579 150 75 150C116.421 150 150 116.421 150 75C150 33.579 116.421 0 75 0Z" fill="#60BE58"/>
<path d="M104.766 106.578C97.9753 113.368 89.0203 117.564 79.4571 118.437C69.8939 119.31 60.327 116.805 52.419 111.357L65.319 95.5352L85.929 91.0862L69.099 89.4002L79.8 78.5192L91.971 75.8522L82.347 73.0022L91.971 55.6412L78.282 70.9952L72.996 63.5342L74.856 75.8522L65.322 86.6012L60.9 73.0022V91.0862L47.619 107.472C47.319 107.172 47.001 106.872 46.698 106.572C42.8844 102.759 39.8593 98.2324 37.7953 93.2502C35.7314 88.268 34.6691 82.928 34.6691 77.5352C34.6691 72.1424 35.7314 66.8024 37.7953 61.8202C39.8593 56.838 42.8844 52.3111 46.698 48.4982C62.733 32.4602 113.832 31.3982 113.832 31.3982C113.832 31.3982 120.801 90.5402 104.766 106.578Z" fill="white"/>
</svg>
