<svg width="150" height="150" viewBox="0 0 150 150" fill="none" xmlns="http://www.w3.org/2000/svg">
<path fill-rule="evenodd" clip-rule="evenodd" d="M75 0C33.579 0 0 33.579 0 75C0 116.421 33.579 150 75 150C116.421 150 150 116.421 150 75C150 33.579 116.421 0 75 0ZM45.2999 107.82H29.7659C29.7603 107.82 29.7548 107.819 29.7497 107.817C29.7446 107.814 29.7401 107.811 29.7366 107.807C29.7351 107.805 29.7337 107.802 29.7326 107.8C29.7312 107.798 29.7302 107.795 29.7296 107.792C29.7288 107.788 29.7286 107.785 29.7288 107.782C29.729 107.779 29.7294 107.777 29.7299 107.775L46.9439 61.8181C46.9463 61.8112 46.9508 61.8052 46.9567 61.8009C46.9626 61.7967 46.9696 61.7943 46.9769 61.7941H61.9349C61.9378 61.7941 61.9406 61.7946 61.9434 61.7953C61.9461 61.796 61.9487 61.7971 61.9511 61.7984C61.9561 61.8011 61.9604 61.805 61.9636 61.8097C61.9669 61.8143 61.9689 61.8197 61.9697 61.8254C61.9704 61.831 61.9698 61.8367 61.9679 61.8421L45.3239 107.799C45.3218 107.804 45.3185 107.809 45.3144 107.812C45.3117 107.815 45.3087 107.817 45.3055 107.818C45.3037 107.819 45.3018 107.82 45.2999 107.82ZM49.671 107.565H120.234C120.24 107.565 120.245 107.564 120.25 107.562C120.253 107.561 120.256 107.559 120.259 107.556C120.26 107.555 120.262 107.553 120.263 107.552C120.265 107.55 120.266 107.548 120.267 107.545C120.269 107.543 120.27 107.54 120.27 107.537C120.272 107.531 120.271 107.526 120.27 107.52L97.482 42.2012C97.4793 42.1946 97.4747 42.1888 97.4689 42.1846C97.4631 42.1804 97.4562 42.1778 97.449 42.1772H72.771C72.7637 42.1774 72.7567 42.1798 72.7508 42.1841C72.7449 42.1884 72.7405 42.1944 72.738 42.2012L49.638 107.52C49.636 107.525 49.6353 107.531 49.636 107.537C49.6367 107.542 49.6388 107.547 49.6421 107.552C49.6443 107.555 49.647 107.557 49.65 107.56C49.6516 107.561 49.6532 107.561 49.6549 107.562C49.6599 107.565 49.6655 107.566 49.671 107.565Z" fill="black"/>
</svg>
