<svg width="150" height="150" viewBox="0 0 150 150" fill="none" xmlns="http://www.w3.org/2000/svg">
<path d="M75 0C33.579 0 0 33.579 0 75C0 116.421 33.579 150 75 150C116.421 150 150 116.421 150 75C150 33.579 116.421 0 75 0Z" fill="#DA7C4D"/>
<path d="M45.2999 107.82H29.7659C29.7603 107.82 29.7548 107.819 29.7497 107.817C29.7446 107.814 29.7401 107.811 29.7366 107.807C29.7332 107.802 29.7307 107.797 29.7296 107.792C29.7284 107.786 29.7285 107.78 29.7299 107.775L46.9439 61.8181C46.9463 61.8112 46.9508 61.8052 46.9567 61.8009C46.9626 61.7967 46.9696 61.7943 46.9769 61.7941H61.9349C61.9406 61.7942 61.9461 61.7957 61.9511 61.7984C61.9561 61.8011 61.9604 61.805 61.9636 61.8097C61.9669 61.8143 61.9689 61.8197 61.9697 61.8253C61.9704 61.831 61.9698 61.8367 61.9679 61.8421L45.3239 107.799C45.3218 107.804 45.3185 107.809 45.3144 107.812C45.3102 107.816 45.3053 107.819 45.2999 107.82Z" fill="white"/>
<path d="M120.234 107.565H49.671C49.6655 107.566 49.6599 107.565 49.6549 107.562C49.6498 107.56 49.6454 107.556 49.6421 107.552C49.6388 107.547 49.6367 107.542 49.636 107.537C49.6353 107.531 49.636 107.525 49.638 107.52L72.738 42.2013C72.7405 42.1944 72.7449 42.1884 72.7508 42.1841C72.7567 42.1798 72.7638 42.1774 72.771 42.1773H97.449C97.4562 42.1778 97.4631 42.1804 97.4689 42.1846C97.4747 42.1888 97.4793 42.1946 97.482 42.2013L120.27 107.52C120.271 107.526 120.272 107.531 120.27 107.537C120.269 107.542 120.267 107.547 120.263 107.552C120.26 107.556 120.255 107.56 120.25 107.562C120.245 107.564 120.24 107.565 120.234 107.565Z" fill="white"/>
</svg>
