<svg width="150" height="150" viewBox="0 0 150 150" fill="none" xmlns="http://www.w3.org/2000/svg">
<path fill-rule="evenodd" clip-rule="evenodd" d="M75 0C33.579 0 0 33.579 0 75C0 116.421 33.579 150 75 150C116.421 150 150 116.421 150 75C150 33.579 116.421 0 75 0ZM73.125 70.9469L73.686 47.2829L51.759 36.4229L52.422 60.6929L73.125 70.9469ZM30.8608 75.0572L51.9868 63.9602L73.1218 75.0752L51.9958 87.1592L30.8608 75.0572ZM52.239 89.1122L52.518 113.577L73.842 101.967L73.578 78.8672L52.239 89.1122ZM97.749 36.5222L98.0281 60.9902L76.689 71.2322L76.425 48.1322L97.749 36.5222ZM76.9799 78.8342L76.4189 102.498L98.3459 113.358L97.6829 89.0882L76.9799 78.8342ZM98.0159 87.1592L76.8779 75.0572L98.0039 63.9602L119.139 75.0752L98.0159 87.1592Z" fill="black"/>
</svg>
