<svg width="150" height="150" viewBox="0 0 150 150" fill="none" xmlns="http://www.w3.org/2000/svg">
<path d="M75 0C33.579 0 0 33.579 0 75C0 116.421 33.579 150 75 150C116.421 150 150 116.421 150 75C150 33.579 116.421 0 75 0Z" fill="#76D1C1"/>
<path d="M73.125 70.947L73.686 47.283L51.759 36.423L52.422 60.693L73.125 70.947Z" fill="white"/>
<path d="M51.987 63.9602L30.861 75.0572L51.996 87.1592L73.122 75.0752L51.987 63.9602Z" fill="white"/>
<path d="M52.239 89.1122L52.518 113.577L73.842 101.967L73.578 78.8672L52.239 89.1122Z" fill="white"/>
<path d="M98.0281 60.9902L97.749 36.5222L76.425 48.1322L76.6891 71.2322L98.0281 60.9902Z" fill="white"/>
<path d="M76.9799 78.8342L76.4189 102.498L98.3459 113.358L97.6829 89.0882L76.9799 78.8342Z" fill="white"/>
<path d="M76.8781 75.0572L98.0161 87.1592L119.139 75.0752L98.004 63.9602L76.8781 75.0572Z" fill="white"/>
</svg>
