<svg width="150" height="150" viewBox="0 0 150 150" fill="none" xmlns="http://www.w3.org/2000/svg">
<path fill-rule="evenodd" clip-rule="evenodd" d="M0 75C0 33.579 33.579 0 75 0C116.421 0 150 33.579 150 75C150 116.421 116.421 150 75 150C33.579 150 0 116.421 0 75ZM52.8944 41.9168C59.4376 37.5448 67.1304 35.2112 75 35.2112C80.2251 35.2112 85.3991 36.2404 90.2265 38.2399C95.054 40.2395 99.4403 43.1704 103.135 46.8651C106.83 50.5599 109.761 54.9462 111.76 59.7736C113.76 64.601 114.789 69.775 114.789 75.0002C114.789 82.8697 112.455 90.5625 108.083 97.1058C103.711 103.649 97.497 108.749 90.2265 111.76C82.9561 114.772 74.9558 115.56 67.2375 114.025C59.5192 112.489 52.4295 108.7 46.8649 103.135C41.3003 97.5707 37.5108 90.4809 35.9755 82.7626C34.4402 75.0443 35.2282 67.0441 38.2397 59.7736C41.2512 52.5031 46.3511 46.2889 52.8944 41.9168ZM62.368 93.9053C66.107 96.4037 70.503 97.7372 75 97.7372C77.9858 97.7372 80.9424 97.1491 83.701 96.0064C86.4596 94.8638 88.9661 93.189 91.0774 91.0777C93.1888 88.9663 94.8636 86.4598 96.0062 83.7013C97.1488 80.9427 97.737 77.9861 97.737 75.0002C97.737 70.5032 96.4035 66.1073 93.9051 62.3682C91.4067 58.6291 87.8557 55.7148 83.701 53.9939C79.5464 52.273 74.9747 51.8228 70.5642 52.7001C66.1536 53.5774 62.1023 55.7429 58.9225 58.9227C55.7426 62.1025 53.5772 66.1539 52.6998 70.5644C51.8225 74.975 52.2728 79.5466 53.9937 83.7013C55.7146 87.8559 58.6289 91.4069 62.368 93.9053Z" fill="black"/>
</svg>
