<svg width="150" height="150" viewBox="0 0 150 150" fill="none" xmlns="http://www.w3.org/2000/svg">
<path d="M75 0C33.579 0 0 33.579 0 75C0 116.421 33.579 150 75 150C116.421 150 150 116.421 150 75C150 33.579 116.421 0 75 0Z" fill="#A0A29F"/>
<path d="M75 35.2112C67.1304 35.2112 59.4376 37.5448 52.8944 41.9168C46.3511 46.2889 41.2512 52.5031 38.2397 59.7736C35.2282 67.0441 34.4402 75.0443 35.9755 82.7626C37.5108 90.4809 41.3003 97.5707 46.8649 103.135C52.4295 108.7 59.5192 112.489 67.2375 114.025C74.9558 115.56 82.9561 114.772 90.2265 111.76C97.497 108.749 103.711 103.649 108.083 97.1058C112.455 90.5625 114.789 82.8697 114.789 75.0002C114.789 69.775 113.76 64.601 111.76 59.7736C109.761 54.9462 106.83 50.5599 103.135 46.8651C99.4403 43.1704 95.054 40.2395 90.2265 38.2399C85.3991 36.2404 80.2251 35.2112 75 35.2112ZM75 97.7372C70.503 97.7372 66.107 96.4037 62.368 93.9053C58.6289 91.4069 55.7146 87.8559 53.9937 83.7013C52.2728 79.5466 51.8225 74.975 52.6998 70.5644C53.5772 66.1539 55.7426 62.1025 58.9225 58.9227C62.1023 55.7429 66.1536 53.5774 70.5642 52.7001C74.9747 51.8228 79.5464 52.273 83.701 53.9939C87.8557 55.7148 91.4067 58.6291 93.9051 62.3682C96.4035 66.1073 97.737 70.5032 97.737 75.0002C97.737 77.986 97.1488 80.9427 96.0062 83.7013C94.8636 86.4598 93.1888 88.9663 91.0774 91.0777C88.9661 93.189 86.4596 94.8638 83.701 96.0064C80.9424 97.1491 77.9858 97.7372 75 97.7372Z" fill="white"/>
</svg>
