<svg width="150" height="150" viewBox="0 0 150 150" fill="none" xmlns="http://www.w3.org/2000/svg">
<path fill-rule="evenodd" clip-rule="evenodd" d="M0 75C0 33.579 33.579 0 75 0C116.421 0 150 33.579 150 75C150 116.421 116.421 150 75 150C33.579 150 0 116.421 0 75ZM75 29.73C100.002 29.73 120.27 47.619 120.27 69.687C120.27 81.432 114.528 91.995 105.375 99.291C105.774 100.922 105.975 102.595 105.975 104.274C105.975 113.1 100.641 120.255 94.062 120.255C90.165 120.255 86.703 117.747 84.531 113.865C82.356 117.747 78.9 120.255 75 120.255C70.725 120.255 66.975 117.234 64.875 112.698C62.772 117.234 59.022 120.255 54.747 120.255C48.168 120.255 42.834 113.1 42.834 104.274C42.8292 102.317 43.0998 100.369 43.638 98.487C35.064 91.233 29.73 81.009 29.73 69.687C29.73 47.619 49.998 29.73 75 29.73ZM47.595 70.479C47.595 81.681 59.598 90.765 74.4 90.765C89.208 90.765 101.208 81.684 101.208 70.479C101.208 59.274 89.205 50.193 74.4 50.193C59.595 50.193 47.595 59.277 47.595 70.479Z" fill="black"/>
</svg>
