<svg width="150" height="150" viewBox="0 0 150 150" fill="none" xmlns="http://www.w3.org/2000/svg">
<path d="M75 0C33.579 0 0 33.579 0 75C0 116.421 33.579 150 75 150C116.421 150 150 116.421 150 75C150 33.579 116.421 0 75 0Z" fill="#B763CF"/>
<path d="M120.27 69.6871C120.27 47.6191 100.002 29.7301 75 29.7301C49.998 29.7301 29.73 47.6191 29.73 69.6871C29.73 81.0091 35.064 91.2331 43.638 98.4871C43.0998 100.369 42.8292 102.317 42.834 104.274C42.834 113.1 48.168 120.255 54.747 120.255C59.022 120.255 62.772 117.234 64.875 112.698C66.975 117.234 70.725 120.255 75 120.255C78.9 120.255 82.356 117.747 84.531 113.865C86.703 117.747 90.165 120.255 94.062 120.255C100.641 120.255 105.975 113.1 105.975 104.274C105.975 102.595 105.774 100.922 105.375 99.2911C114.528 91.9951 120.27 81.4321 120.27 69.6871ZM74.4 90.7651C59.598 90.7651 47.595 81.6811 47.595 70.4791C47.595 59.2771 59.595 50.1931 74.4 50.1931C89.205 50.1931 101.208 59.2741 101.208 70.4791C101.208 81.6841 89.208 90.7651 74.4 90.7651Z" fill="white"/>
</svg>
