<svg width="150" height="150" viewBox="0 0 150 150" fill="none" xmlns="http://www.w3.org/2000/svg">
<path fill-rule="evenodd" clip-rule="evenodd" d="M0 75C0 33.579 33.579 0 75 0C116.421 0 150 33.579 150 75C150 116.421 116.421 150 75 150C33.579 150 0 116.421 0 75ZM78.8498 74.9058C78.718 74.6971 78.5811 74.4803 78.423 74.2621C78.1187 73.8418 78.1624 73.0147 78.21 72.1156C78.2989 70.4349 78.4012 68.5021 76.269 68.5021C72.996 68.5021 72.396 73.7551 72.396 73.7551C72.396 73.7551 73.599 83.8921 83.364 83.7181C93.129 83.5441 97.7759 75.9841 96.429 68.5021C95.082 61.0201 87.822 53.0701 75.075 54.6751C62.328 56.2801 57.123 69.1561 59.418 82.9231C61.713 96.6901 78.189 104.658 91.164 101.79C104.139 98.9221 117.039 89.5381 117.039 65.7421C117.039 41.9461 96.429 27.6571 71.856 30.0001C47.283 32.3431 32.016 53.8231 33 79.6381C33.984 105.453 58.5 119.508 79.2 120.234C99.9 120.96 112.59 108.969 112.59 108.969C112.59 108.969 115.449 106.425 114.327 104.436C113.205 102.447 110.4 104.922 110.4 104.922C110.4 104.922 99 114.081 76.269 110.301C59.034 107.415 49.839 88.4161 49.839 78.2011C49.839 54.0001 67.761 48.4771 79.878 48.4771C91.995 48.4771 99.9 60.2881 99.9 69.4351C99.9 78.5821 93.432 86.5831 83.364 86.5831C73.296 86.5831 70.314 79.5151 70.314 73.0171C70.314 66.5191 75.573 64.2301 80.367 64.2301C85.161 64.2301 86.802 68.3221 86.802 71.8411C86.802 75.3601 84.072 76.6201 81.795 76.6201C79.932 76.6201 79.4426 75.8449 78.8498 74.9058Z" fill="black"/>
</svg>
