<svg width="150" height="150" viewBox="0 0 150 150" fill="none" xmlns="http://www.w3.org/2000/svg">
<path d="M75 0C33.579 0 0 33.579 0 75C0 116.421 33.579 150 75 150C116.421 150 150 116.421 150 75C150 33.579 116.421 0 75 0Z" fill="#FA8582"/>
<path d="M78.423 74.262C79.293 75.462 79.518 76.62 81.795 76.62C84.072 76.62 86.802 75.36 86.802 71.841C86.802 68.322 85.161 64.23 80.367 64.23C75.573 64.23 70.314 66.519 70.314 73.017C70.314 79.515 73.296 86.583 83.364 86.583C93.432 86.583 99.9 78.582 99.9 69.435C99.9 60.288 91.995 48.477 79.878 48.477C67.761 48.477 49.839 54 49.839 78.201C49.839 88.416 59.034 107.415 76.269 110.301C99 114.081 110.4 104.922 110.4 104.922C110.4 104.922 113.205 102.447 114.327 104.436C115.449 106.425 112.59 108.969 112.59 108.969C112.59 108.969 99.9 120.96 79.2 120.234C58.5 119.508 33.984 105.453 33 79.638C32.016 53.823 47.283 32.343 71.856 30C96.429 27.657 117.039 41.946 117.039 65.742C117.039 89.538 104.139 98.922 91.164 101.79C78.189 104.658 61.713 96.69 59.418 82.923C57.123 69.156 62.328 56.28 75.075 54.675C87.822 53.07 95.082 61.02 96.429 68.502C97.7759 75.984 93.129 83.544 83.364 83.718C73.599 83.892 72.396 73.755 72.396 73.755C72.396 73.755 72.996 68.502 76.269 68.502C79.542 68.502 77.55 73.056 78.423 74.262Z" fill="white"/>
</svg>
