<svg width="150" height="150" viewBox="0 0 150 150" fill="none" xmlns="http://www.w3.org/2000/svg">
<path fill-rule="evenodd" clip-rule="evenodd" d="M0 75C0 33.579 33.579 0 75 0C116.421 0 150 33.579 150 75C150 116.421 116.421 150 75 150C33.579 150 0 116.421 0 75ZM98.433 39.5669L93.69 71.3669C93.6904 71.3678 93.6908 71.3687 93.6912 71.3696C93.6914 71.3703 93.6917 71.3711 93.6918 71.3718C93.6922 71.3733 93.6925 71.3748 93.6926 71.3763C93.6928 71.3796 93.6923 71.3829 93.6912 71.386C93.69 71.3891 93.6883 71.3919 93.686 71.3943C93.6844 71.396 93.6825 71.3975 93.6805 71.3987L93.678 71.3999L49.473 101.916C49.4697 101.918 49.466 101.919 49.4622 101.919L49.4595 101.92C49.4568 101.92 49.4541 101.919 49.4515 101.918C49.4496 101.918 49.4477 101.917 49.446 101.916L29.667 95.4479C29.6601 95.4465 29.6539 95.4427 29.6496 95.4372C29.6452 95.4318 29.6429 95.4249 29.643 95.4179V75.2249C29.6424 75.2235 29.6419 75.222 29.6416 75.2205C29.6411 75.2185 29.6409 75.2164 29.6409 75.2144C29.6409 75.2108 29.6416 75.2072 29.643 75.2039L59.214 39.5309C59.216 39.5299 59.2181 39.5292 59.2202 39.5287C59.2221 39.5283 59.224 39.5281 59.226 39.5281C59.228 39.5281 59.2299 39.5283 59.2318 39.5287C59.2333 39.529 59.2348 39.5295 59.2362 39.5301C59.2368 39.5303 59.2374 39.5306 59.238 39.5309H98.4C98.4046 39.5309 98.4091 39.5318 98.4133 39.5337C98.4153 39.5345 98.4172 39.5356 98.419 39.5368C98.421 39.5382 98.4228 39.5398 98.4245 39.5416C98.4276 39.545 98.4299 39.549 98.4314 39.5533C98.4329 39.5577 98.4334 39.5623 98.433 39.5669ZM95.4 77.7868C95.3972 77.7836 95.3937 77.781 95.3898 77.7793C95.3885 77.7787 95.3871 77.7782 95.3856 77.7777C95.383 77.777 95.3802 77.7766 95.3775 77.7766C95.3732 77.7766 95.369 77.7775 95.3651 77.7793C95.3613 77.781 95.3578 77.7836 95.355 77.7868L57.678 103.563L79.278 110.643C79.2798 110.644 79.2817 110.644 79.2837 110.645C79.2867 110.646 79.2898 110.646 79.293 110.646C79.2982 110.646 79.3033 110.645 79.308 110.643L105.033 92.1898C105.039 92.1837 105.042 92.1756 105.042 92.1673C105.042 92.1589 105.039 92.1509 105.033 92.1448L95.4 77.7868ZM107.345 39.3698C107.347 39.3723 107.348 39.375 107.349 39.3778L120.345 80.5679C120.348 80.5732 120.35 80.5795 120.35 80.5859C120.35 80.5902 120.349 80.5945 120.348 80.5985C120.347 80.6004 120.346 80.6022 120.345 80.6039L110.745 88.1039C110.742 88.107 110.739 88.1096 110.735 88.1114C110.731 88.1131 110.727 88.114 110.722 88.114C110.72 88.114 110.717 88.1137 110.715 88.113C110.713 88.1126 110.712 88.1121 110.71 88.1114C110.706 88.1096 110.703 88.107 110.7 88.1039L99.6839 73.0889C99.6809 73.0811 99.6809 73.0726 99.6839 73.0649L105.459 39.3839C105.459 39.3819 105.459 39.38 105.46 39.3781C105.461 39.3762 105.461 39.3743 105.462 39.3726C105.464 39.3691 105.467 39.366 105.47 39.3635C105.473 39.361 105.476 39.3591 105.48 39.3579C105.484 39.3568 105.488 39.3564 105.492 39.3569H107.319C107.326 39.3566 107.332 39.3584 107.337 39.3622C107.34 39.3643 107.343 39.3669 107.345 39.3698Z" fill="black"/>
</svg>
