<svg width="150" height="150" viewBox="0 0 150 150" fill="none" xmlns="http://www.w3.org/2000/svg">
<path d="M75 0C33.579 0 0 33.579 0 75C0 116.421 33.579 150 75 150C116.421 150 150 116.421 150 75C150 33.579 116.421 0 75 0Z" fill="#C9BC8A"/>
<path d="M93.69 71.3669L98.433 39.5669C98.4334 39.5623 98.4329 39.5577 98.4314 39.5533C98.4299 39.549 98.4276 39.545 98.4245 39.5416C98.4213 39.5382 98.4176 39.5355 98.4133 39.5337C98.4091 39.5318 98.4046 39.5309 98.4 39.5309H59.238C59.2343 39.529 59.2302 39.5281 59.226 39.5281C59.2218 39.5281 59.2177 39.529 59.214 39.5309L29.643 75.2039C29.6416 75.2072 29.6409 75.2108 29.6409 75.2144C29.6409 75.218 29.6416 75.2216 29.643 75.2249V95.4179C29.6429 95.4249 29.6452 95.4318 29.6496 95.4372C29.6539 95.4427 29.6601 95.4465 29.667 95.4479L49.446 101.916C49.4501 101.918 49.4548 101.92 49.4595 101.92C49.4642 101.92 49.4689 101.918 49.473 101.916L93.678 71.3999C93.681 71.3986 93.6838 71.3967 93.686 71.3943C93.6883 71.3919 93.69 71.3891 93.6912 71.386C93.6923 71.3829 93.6928 71.3796 93.6926 71.3763C93.6924 71.373 93.6915 71.3698 93.69 71.3669Z" fill="white"/>
<path d="M95.4 77.7868C95.3972 77.7836 95.3937 77.781 95.3898 77.7793C95.3859 77.7775 95.3817 77.7766 95.3775 77.7766C95.3732 77.7766 95.369 77.7775 95.3651 77.7793C95.3613 77.781 95.3578 77.7836 95.355 77.7868L57.678 103.563L79.278 110.643C79.2827 110.645 79.2878 110.646 79.293 110.646C79.2982 110.646 79.3033 110.645 79.308 110.643L105.033 92.1898C105.039 92.1837 105.042 92.1756 105.042 92.1673C105.042 92.1589 105.039 92.1509 105.033 92.1448L95.4 77.7868Z" fill="white"/>
<path d="M107.349 39.3779C107.347 39.3715 107.343 39.366 107.338 39.3622C107.332 39.3584 107.326 39.3566 107.319 39.3569H105.492C105.488 39.3564 105.484 39.3568 105.48 39.3579C105.476 39.3591 105.473 39.361 105.47 39.3635C105.467 39.366 105.464 39.3691 105.462 39.3726C105.461 39.3761 105.459 39.3799 105.459 39.3839L99.684 73.0649C99.681 73.0726 99.681 73.0811 99.684 73.0889L110.7 88.1039C110.703 88.107 110.706 88.1096 110.71 88.1114C110.714 88.1131 110.718 88.114 110.723 88.114C110.727 88.114 110.731 88.1131 110.735 88.1114C110.739 88.1096 110.742 88.107 110.745 88.1039L120.345 80.6039C120.349 80.5985 120.35 80.5922 120.35 80.5859C120.35 80.5795 120.349 80.5732 120.345 80.5679L107.349 39.3779Z" fill="white"/>
</svg>
