<svg width="20" height="203" viewBox="0 0 20 203" fill="none" xmlns="http://www.w3.org/2000/svg">
<circle cx="10" cy="9" r="9" fill="black"/>
<path d="M10 38L19.5 53H0.5L10 38Z" fill="black"/>
<rect x="2" y="73" width="16" height="16" fill="black"/>
<path d="M19 113.845C19 119.315 10.6597 123.743 10.3046 123.925C10.2109 123.974 10.1063 124 10 124C9.8937 124 9.78906 123.974 9.69545 123.925C9.34027 123.743 1 119.315 1 113.845C1.00149 112.56 1.52687 111.329 2.46088 110.421C3.39489 109.512 4.66125 109.001 5.98214 109C7.64152 109 9.09437 109.694 10 110.867C10.9056 109.694 12.3585 109 14.0179 109C15.3387 109.001 16.6051 109.512 17.5391 110.421C18.4731 111.329 18.9985 112.56 19 113.845Z" fill="black"/>
<path d="M10 144L12.9389 149.955L19.5106 150.91L14.7553 155.545L15.8779 162.09L10 159L4.12215 162.09L5.24472 155.545L0.489435 150.91L7.06107 149.955L10 144Z" fill="black"/>
<rect x="10" y="184" width="13" height="13" transform="rotate(45 10 184)" fill="black"/>
</svg>
