<svg width="150" height="150" viewBox="0 0 150 150" fill="none" xmlns="http://www.w3.org/2000/svg">
<path d="M75 0C33.579 0 0 33.579 0 75C0 116.421 33.579 150 75 150C116.421 150 150 116.421 150 75C150 33.579 116.421 0 75 0Z" fill="#5795A3"/>
<path d="M120.261 75.0001L97.7461 36.0901C97.7401 36.0803 97.7317 36.0722 97.7218 36.0664C97.7118 36.0606 97.7006 36.0575 97.6891 36.0571H52.5631C52.5514 36.0569 52.54 36.0598 52.5299 36.0656C52.5199 36.0714 52.5116 36.0799 52.5061 36.0901L29.7391 75.0001C29.7333 75.0102 29.7302 75.0216 29.7302 75.0331C29.7302 75.0447 29.7333 75.0561 29.7391 75.0661L52.5001 113.91C52.5056 113.92 52.5139 113.929 52.5239 113.935C52.534 113.941 52.5454 113.943 52.5571 113.943H97.6891C97.7006 113.943 97.7118 113.94 97.7218 113.934C97.7317 113.928 97.7401 113.92 97.7461 113.91L120.261 75.0541C120.265 75.0457 120.267 75.0364 120.267 75.0271C120.267 75.0178 120.265 75.0086 120.261 75.0001ZM75.0001 95.9701C70.8526 95.9701 66.7983 94.7403 63.3498 92.4361C59.9013 90.1318 57.2135 86.8568 55.6263 83.025C54.0391 79.1932 53.6239 74.9769 54.433 70.9091C55.2421 66.8413 57.2393 63.1048 60.172 60.1721C63.1047 57.2394 66.8412 55.2422 70.909 54.4331C74.9768 53.624 79.1932 54.0392 83.0249 55.6264C86.8567 57.2136 90.1318 59.9013 92.436 63.3498C94.7402 66.7983 95.9701 70.8527 95.9701 75.0001C95.9701 80.5617 93.7607 85.8955 89.8281 89.8282C85.8955 93.7608 80.5617 95.9701 75.0001 95.9701Z" fill="white"/>
</svg>
