<svg width="150" height="150" viewBox="0 0 150 150" fill="none" xmlns="http://www.w3.org/2000/svg">
<path fill-rule="evenodd" clip-rule="evenodd" d="M0 75C0 33.579 33.579 0 75 0C116.421 0 150 33.579 150 75C150 116.421 116.421 150 75 150C33.579 150 0 116.421 0 75ZM97.7461 36.0901L120.261 75.0001C120.265 75.0086 120.267 75.0178 120.267 75.0271C120.267 75.0312 120.266 75.0351 120.266 75.0391C120.265 75.0442 120.263 75.0493 120.261 75.0541L97.7461 113.91C97.7401 113.92 97.7317 113.928 97.7218 113.934C97.7118 113.94 97.7006 113.943 97.6891 113.943H52.5571C52.5454 113.943 52.534 113.941 52.5239 113.935C52.5139 113.929 52.5056 113.92 52.5001 113.91L29.7391 75.0661C29.7333 75.0561 29.7302 75.0447 29.7302 75.0331C29.7302 75.0216 29.7333 75.0102 29.7391 75.0001L52.5061 36.0901C52.5116 36.0799 52.5199 36.0714 52.5299 36.0656C52.54 36.0598 52.5514 36.0569 52.5631 36.0571H97.6891C97.7006 36.0575 97.7118 36.0606 97.7218 36.0664C97.7317 36.0722 97.7401 36.0803 97.7461 36.0901ZM63.3498 92.4361C66.7983 94.7403 70.8526 95.9701 75.0001 95.9701C80.5617 95.9701 85.8955 93.7608 89.8281 89.8282C93.7607 85.8955 95.9701 80.5617 95.9701 75.0001C95.9701 70.8527 94.7402 66.7983 92.436 63.3498C90.1318 59.9013 86.8567 57.2136 83.0249 55.6264C79.1932 54.0392 74.9768 53.624 70.909 54.4331C66.8412 55.2422 63.1047 57.2394 60.172 60.1721C57.2393 63.1048 55.2421 66.8413 54.433 70.9091C53.6239 74.9769 54.0391 79.1933 55.6263 83.025C57.2135 86.8568 59.9013 90.1318 63.3498 92.4361Z" fill="black"/>
</svg>
