<svg width="150" height="150" viewBox="0 0 150 150" fill="none" xmlns="http://www.w3.org/2000/svg">
<path fill-rule="evenodd" clip-rule="evenodd" d="M0 75C0 33.579 33.579 0 75 0C116.421 0 150 33.579 150 75C150 116.421 116.421 150 75 150C33.579 150 0 116.421 0 75ZM75.0386 29.7433C75.0502 29.7502 75.0597 29.7601 75.0661 29.772C76.5901 32.127 104.37 75.3 104.37 91.008C104.37 107.169 91.2211 120.27 75.0001 120.27C58.7791 120.27 45.6301 107.169 45.6301 91.008C45.6301 75.3 73.4101 32.127 74.9341 29.772C74.9406 29.7601 74.9501 29.7502 74.9617 29.7433C74.9733 29.7363 74.9866 29.7327 75.0001 29.7327C75.0137 29.7327 75.0269 29.7363 75.0386 29.7433ZM57.7501 91.1161C57.7501 91.1161 55.2001 107.628 70.1041 110.889C85.0081 114.15 93.5071 102.816 93.5071 102.816C93.5071 102.816 81.5731 107.547 71.6971 104.316C61.8211 101.085 57.7501 91.1161 57.7501 91.1161Z" fill="black"/>
</svg>
