<svg width="150" height="150" viewBox="0 0 150 150" fill="none" xmlns="http://www.w3.org/2000/svg">
<path d="M75 0C33.579 0 0 33.579 0 75C0 116.421 33.579 150 75 150C116.421 150 150 116.421 150 75C150 33.579 116.421 0 75 0Z" fill="#539DDF"/>
<path d="M75.0661 29.772C75.0597 29.7601 75.0502 29.7502 75.0386 29.7433C75.0269 29.7363 75.0137 29.7327 75.0001 29.7327C74.9866 29.7327 74.9733 29.7363 74.9617 29.7433C74.9501 29.7502 74.9405 29.7601 74.9341 29.772C73.4101 32.127 45.6301 75.3 45.6301 91.008C45.6301 107.169 58.7791 120.27 75.0001 120.27C91.2211 120.27 104.37 107.169 104.37 91.008C104.37 75.3 76.5901 32.127 75.0661 29.772ZM70.1041 110.889C55.2001 107.628 57.7501 91.1161 57.7501 91.1161C57.7501 91.1161 61.8211 101.085 71.6971 104.316C81.5731 107.547 93.5071 102.816 93.5071 102.816C93.5071 102.816 85.0081 114.15 70.1041 110.889Z" fill="white"/>
</svg>
